<?xml version="1.0" encoding="UTF-8"?>
<svg id="Layer_1" data-name="Layer 1" xmlns="http://www.w3.org/2000/svg" viewBox="0 0 512.69 717.07">
  <defs>
    <style>
      .cls-1 {
        stroke: #020202;
      }

      .cls-1, .cls-2, .cls-3, .cls-4, .cls-5, .cls-6 {
        fill: none;
        stroke-width: .85px;
      }

      .cls-1, .cls-2, .cls-4, .cls-5 {
        stroke-miterlimit: 10;
      }

      .cls-2, .cls-6 {
        stroke: #231f20;
      }

      .cls-3 {
        fill: #911616;
        stroke-miterlimit: 10;
      }

      .cls-4 {
        stroke: #5913b4;
      }

      .cls-5 {
        stroke: #000;
      }
    </style>
  </defs>
  <g>
    <path class="cls-6" d="m27.56,93.24h-9.2v-6.85h1.49v-14.91h-1.49v-6.85h9.2v6.85h-1.47v14.91h1.47v6.85Z"/>
    <path class="cls-6" d="m38.39,93.24h-6.63v-6.85h1.42v-14.91h-1.42v-6.85h7.65l5.87,14.95v-8.1h-1.31v-6.85h6.51v6.85h-1.4v22.13h-5.32l-6.8-17.3v10.08h1.43v6.85Z"/>
    <path class="cls-6" d="m61.72,93.24h-7.51v-6.85h1.27v-14.91h-1.27v-6.85h7.73c1.76,0,3.2.19,4.32.58,1.12.38,2.18,1.17,3.17,2.37.98,1.21,1.76,2.84,2.32,4.9.28.99.49,2.04.64,3.17.15,1.12.22,2.3.22,3.54,0,2.48-.3,4.75-.89,6.79-.59,2.03-1.33,3.59-2.24,4.67-.88,1.08-1.85,1.79-2.9,2.12-1.04.33-2.66.49-4.85.49Zm0-21.76v14.91h.59c1.47,0,2.43-.69,2.87-2.08.43-1.38.65-3.13.65-5.22,0-1.26-.09-2.51-.28-3.74-.19-1.23-.53-2.19-1.02-2.86-.48-.67-1.34-1.01-2.58-1.01h-.23Z"/>
    <path class="cls-6" d="m84.69,93.24h-9.2v-6.85h1.49v-14.91h-1.49v-6.85h9.2v6.85h-1.47v14.91h1.47v6.85Z"/>
    <path class="cls-6" d="m99.67,83.39h-1.65v-5.43h7.22c0,3.13-.12,5.45-.37,6.97-.24,1.47-.74,2.96-1.51,4.46-.75,1.49-1.66,2.59-2.73,3.27s-2.21,1.03-3.44,1.03c-1.82,0-3.47-.53-4.96-1.6-1.49-1.04-2.65-2.77-3.46-5.18-.82-2.37-1.23-5.03-1.23-7.98,0-4.46.83-8.05,2.48-10.78,1.64-2.73,3.65-4.09,6.04-4.09,1.99,0,3.55.86,4.68,2.57v-2h3.89v10h-3.89c-.34-1.23-.78-2.17-1.33-2.8-.55-.63-1.18-.95-1.91-.95-1.02,0-1.77.59-2.25,1.77-.47,1.18-.71,3.35-.71,6.5s.25,5.27.74,6.4c.5,1.14,1.23,1.71,2.19,1.71,1.45,0,2.18-1.29,2.18-3.87Z"/>
    <path class="cls-6" d="m124.66,93.24h-15.4v-6.85h1.25v-14.91h-1.28v-6.85h15.42v9.15h-4.24v-2.3h-3.67v4.4h3.19v5.82h-3.19v4.69h3.67v-2.3h4.24v9.15Z"/>
    <path class="cls-6" d="m135.98,93.24h-6.63v-6.85h1.42v-14.91h-1.42v-6.85h7.65l5.87,14.95v-8.1h-1.31v-6.85h6.51v6.85h-1.4v22.13h-5.32l-6.8-17.3v10.08h1.43v6.85Z"/>
    <path class="cls-6" d="m150.92,78.86c0-2.39.33-4.7.99-6.93.65-2.22,1.66-4.09,3.03-5.62.49-.53.99-.96,1.5-1.28.51-.32,1.07-.56,1.68-.73.6-.17,1.24-.26,1.9-.26,2.89,0,5.13,1.5,6.72,4.51.79,1.48,1.39,3.09,1.79,4.81.4,1.73.6,3.56.6,5.49,0,3.99-.82,7.46-2.46,10.41-1.64,2.95-3.86,4.42-6.65,4.42s-4.89-1.38-6.57-4.16c-1.69-2.76-2.53-6.32-2.53-10.68Zm7.01,0c0,3.18.17,5.33.52,6.44.33,1.12.85,1.69,1.57,1.69s1.23-.54,1.58-1.63c.35-1.1.52-3.26.52-6.5s-.17-5.28-.51-6.42c-.33-1.12-.86-1.69-1.59-1.69s-1.22.54-1.57,1.63c-.35,1.08-.52,3.24-.52,6.48Z"/>
    <path class="cls-6" d="m173.1,71.48h-1.24v-6.85h8.26v6.85h-.77v9.65c0,2.3.12,3.87.37,4.71.25.82.69,1.23,1.33,1.23.53,0,.92-.35,1.16-1.05.24-.69.36-2.09.36-4.22v-10.33h-.81v-6.85h6.07v6.85h-1.28v10.37c0,2.65-.22,4.81-.65,6.5-.43,1.67-1.15,2.98-2.16,3.93-1.01.95-2.24,1.42-3.71,1.42-1.18,0-2.23-.25-3.14-.76-.93-.49-1.66-1.25-2.21-2.26-.54-1-.94-2.21-1.2-3.64-.26-1.38-.39-3.51-.39-6.38v-9.17Z"/>
    <path class="cls-6" d="m194.92,93.24h-3.63v-9.17h3.63c.43,2.5,1.25,3.74,2.45,3.74.87,0,1.3-.62,1.3-1.85,0-.64-.15-1.18-.45-1.6-.32-.47-1.01-1.11-2.05-1.93-1.31-1.06-2.28-1.97-2.9-2.74-.58-.7-1.08-1.67-1.49-2.9-.41-1.22-.62-2.57-.62-4.05,0-2.66.49-4.74,1.46-6.23.97-1.49,2.16-2.24,3.57-2.24s2.62.71,3.6,2.14v-1.77h3.66v8.15h-3.61c-.44-2.25-1.22-3.37-2.34-3.37-.79,0-1.18.6-1.18,1.79,0,.58.11,1.01.34,1.3.22.3.92.97,2.1,2,1.59,1.4,2.65,2.42,3.18,3.07.27.32.55.76.83,1.33.28.57.52,1.16.7,1.76.43,1.34.64,2.8.64,4.36,0,2.4-.5,4.43-1.51,6.09-1.01,1.69-2.27,2.53-3.81,2.53-1.42,0-2.71-.75-3.87-2.24v1.87Z"/>
    <path class="cls-6" d="m48.03,130.86h-10.8v-6.15h1.79v-13.39h-1.79v-6.15h11.33c2.6,0,4.51.35,5.71,1.05,1.2.71,2.09,1.69,2.66,2.92s.85,2.58.85,4.05c0,1.81-.34,3.31-1.01,4.51-.67,1.21-1.56,2.08-2.67,2.62-1.09.53-2.77.79-5.05.79h-2.88v3.6h1.86v6.15Zm-1.86-20.06v4.82h1.39c.97,0,1.68-.16,2.12-.48.42-.32.64-.94.64-1.87,0-.6-.12-1.11-.35-1.53-.22-.41-.52-.67-.89-.78-.35-.11-.96-.17-1.81-.17h-1.12Z"/>
    <path class="cls-6" d="m78.16,130.86h-17.62v-6.15h1.43v-13.39h-1.46v-6.15h17.65v8.22h-4.85v-2.07h-4.2v3.95h3.65v5.23h-3.65v4.21h4.2v-2.07h4.85v8.22Z"/>
    <path class="cls-6" d="m81.07,117.95c0-2.14.38-4.22,1.13-6.23.74-2,1.9-3.68,3.47-5.04.56-.48,1.13-.86,1.72-1.15s1.23-.5,1.92-.66c.69-.15,1.42-.23,2.18-.23,3.31,0,5.87,1.35,7.69,4.05.9,1.33,1.58,2.77,2.05,4.32s.69,3.2.69,4.93c0,3.58-.94,6.7-2.82,9.35s-4.41,3.97-7.61,3.97-5.6-1.24-7.52-3.73c-1.93-2.48-2.89-5.67-2.89-9.59Zm8.02,0c0,2.86.2,4.79.6,5.78.38,1.01.98,1.51,1.79,1.51s1.41-.49,1.81-1.46c.4-.99.6-2.93.6-5.84s-.19-4.74-.58-5.76c-.38-1.01-.99-1.51-1.82-1.51s-1.39.49-1.79,1.46-.6,2.91-.6,5.82Z"/>
    <path class="cls-6" d="m115.25,130.86h-10.8v-6.15h1.79v-13.39h-1.79v-6.15h11.33c2.6,0,4.51.35,5.71,1.05,1.2.71,2.09,1.69,2.66,2.92s.85,2.58.85,4.05c0,1.81-.34,3.31-1.01,4.51-.67,1.21-1.56,2.08-2.67,2.62-1.09.53-2.77.79-5.05.79h-2.88v3.6h1.86v6.15Zm-1.86-20.06v4.82h1.39c.97,0,1.68-.16,2.12-.48.42-.32.64-.94.64-1.87,0-.6-.12-1.11-.35-1.53-.22-.41-.52-.67-.89-.78-.35-.11-.96-.17-1.81-.17h-1.12Z"/>
    <path class="cls-6" d="m145.07,130.86h-17.58v-6.15h1.66v-13.39h-1.66v-6.15h10.56v6.15h-1.75v13.39h4.37v-4.12h4.41v10.27Z"/>
    <path class="cls-6" d="m165.24,130.86h-17.62v-6.15h1.43v-13.39h-1.46v-6.15h17.65v8.22h-4.85v-2.07h-4.2v3.95h3.65v5.23h-3.65v4.21h4.2v-2.07h4.85v8.22Z"/>
    <path class="cls-6" d="m172.19,130.86h-4.16v-8.24h4.16c.5,2.24,1.43,3.36,2.8,3.36.99,0,1.49-.55,1.49-1.66,0-.58-.17-1.06-.52-1.44-.37-.42-1.16-1-2.35-1.74-1.51-.95-2.61-1.77-3.32-2.46-.66-.63-1.23-1.5-1.7-2.6-.47-1.1-.7-2.31-.7-3.64,0-2.39.56-4.26,1.67-5.6,1.11-1.34,2.47-2.01,4.09-2.01s2.99.64,4.12,1.92v-1.59h4.18v7.32h-4.13c-.5-2.02-1.4-3.03-2.68-3.03-.9,0-1.35.54-1.35,1.61,0,.52.13.91.38,1.16.25.27,1.05.87,2.4,1.79,1.81,1.26,3.03,2.17,3.64,2.75.31.28.63.68.95,1.19.32.51.59,1.04.8,1.58.49,1.21.73,2.51.73,3.92,0,2.16-.58,3.98-1.73,5.47-1.15,1.51-2.6,2.27-4.36,2.27-1.63,0-3.1-.67-4.42-2.01v1.68Z"/>
    <path class="cls-6" d="m185.02,119.35v-3.62c.71,0,1.25-.15,1.62-.44.37-.31.6-.66.69-1.05.1-.41.15-1.19.16-2.35h-2.47v-6.72h6.63v5.75c0,2.06-.05,3.47-.16,4.23-.11.78-.42,1.53-.93,2.25-.51.74-1.13,1.25-1.87,1.53s-1.97.42-3.67.42Z"/>
    <path class="cls-6" d="m85.03,172.91h-10.49v-7.51h1.77v-16.35h-1.77v-7.51h10.8c2.46,0,4.47.21,6.03.63,1.57.42,3.04,1.29,4.43,2.59,1.37,1.32,2.45,3.11,3.24,5.37.39,1.08.69,2.24.89,3.47s.31,2.53.31,3.88c0,2.72-.42,5.2-1.25,7.44-.82,2.23-1.86,3.93-3.13,5.12-1.23,1.19-2.58,1.96-4.05,2.32-1.46.36-3.72.54-6.78.54Zm0-23.86v16.35h.83c2.05,0,3.39-.76,4-2.28.61-1.52.91-3.43.91-5.73,0-1.38-.13-2.75-.39-4.11-.27-1.35-.75-2.4-1.43-3.14-.67-.74-1.87-1.11-3.6-1.11h-.32Z"/>
    <path class="cls-6" d="m111.56,172.91h-8.93v-7.51h1.72l4.23-16.35h-1.82v-7.51h16.21v7.51h-1.82l4.31,16.35h1.65v7.51h-11.77v-6.88h1.98l-.86-3.95h-5.77l-.99,3.95h1.85v6.88Zm2.12-23.41l-2.12,8.68h4.04l-1.91-8.68Z"/>
    <path class="cls-6" d="m145.49,172.91h-12.32v-7.51h1.82v-4.98l-5.69-11.37h-1.54v-7.51h11.79v7.51h-1.35l2.4,6.41,2.9-6.41h-1.38v-7.51h8.67v7.51h-1.41l-5.67,11.37v4.98h1.78v7.51Z"/>
    <path class="cls-3" d="m216.05,79.38c-.61,10.76-4.1,20.79-9.27,30.39-5.01,9.02-11.09,17.45-17.48,25.59-8.97,11.2-18.69,21.81-28.57,32.14-11.85,12.21-24.01,23.85-36.32,35.48-4.26,3.93-8.36,8-12.61,12.07-1.06,1.02-.76.87-1.67,0-3.5-3.2-6.84-6.54-10.33-9.74-10.79-10.18-21.43-20.36-31.91-30.83-10.64-10.62-20.97-21.52-30.55-33.01-7.14-8.58-13.98-17.45-19.6-26.9-3.5-5.96-6.69-11.92-8.81-18.47-2.89-8.72-3.95-17.59-3.19-26.61.76-10.03,3.65-19.49,9.42-28.06,5.01-7.42,11.55-13.23,20.06-16.87,5.32-2.18,10.94-3.34,16.72-3.34,7.75,0,15.35.87,22.8,3.2,10.03,3.05,18.08,8.87,24.92,16.43,3.8,4.22,7.14,8.87,10.49,13.52.3.44.61.87.91,1.31.46-.29.76-.73.91-1.02,3.04-4.22,6.23-8.58,9.73-12.51,5.01-5.82,10.64-10.76,17.63-14.25,5.93-3.05,12.31-4.8,18.84-5.82,3.95-.58,7.9-.87,11.85-.87,11.7,0,21.58,4.07,29.94,11.78,7.14,6.69,11.55,14.83,14.29,23.99,1.06,3.49,1.82,7.13,1.98,10.91,0,.58.3,1.16.3,1.74l-.46,9.74h0Z"/>
  </g>
  <rect class="cls-4" x="290.01" y="4.49" width="222.26" height="222.26" rx="15.26" ry="15.26"/>
  <g>
    <path class="cls-6" d="m320.64,88.36c-1.76-5.84-3.96-12.15-6.61-18.95l-6.64,2.92-.7-1.96c-.38-1.05-.8-2.19-1.28-3.42,3-1.19,6.48-2.59,10.46-4.21l3.89-1.6,3.79-1.54,2.04-.85.6,1.74c.33.93.61,1.69.83,2.3.23.6.4,1.06.53,1.36-2.3.79-4.18,1.48-5.64,2.07l-1.1.45c.67,2.11,1.32,4.05,1.94,5.81.89,2.53,1.78,4.98,2.67,7.34.89,2.36,1.62,4.27,2.21,5.71-1.73.68-2.85,1.12-3.36,1.32-.45.18-1.66.69-3.61,1.51Z"/>
    <path class="cls-6" d="m335.11,82.51c-.35-1.84-.66-3.34-.93-4.51-.56-2.45-1.23-5.3-2.01-8.53-.53-2.14-1.05-4.18-1.58-6.14-.53-1.95-1.06-3.85-1.6-5.68,1.39-.39,2.52-.71,3.39-.96,1.17-.35,2.28-.69,3.32-1.02l.95,4.45c.16.73.5,2.21,1.04,4.44.21-.61.39-1.07.55-1.38.16-.31.34-.62.56-.91.22-.29.45-.55.69-.78.25-.23.54-.45.88-.67.34-.22.73-.43,1.17-.62.43-.19.89-.36,1.37-.5.92-.27,1.85-.43,2.79-.45.93-.03,1.79.15,2.57.54.78.39,1.38.9,1.8,1.54.42.64.76,1.37,1.01,2.21.1.32.21.75.36,1.29s.31,1.22.49,2.05l1.44,6.16c.18.77.34,1.4.48,1.9.14.5.32,1.12.55,1.88-1.14.31-2.23.62-3.26.93-1.17.35-2.34.71-3.53,1.09-.29-1.65-.67-3.53-1.15-5.65-.47-2.12-.86-3.69-1.17-4.71-.33-1.13-.78-1.85-1.35-2.18-.57-.33-1.2-.39-1.91-.18-.63.19-1.15.5-1.56.93-.36.38-.63.88-.8,1.51-.15.53-.2,1.24-.13,2.13.08,1.08.36,2.64.83,4.66.26,1.12.71,2.86,1.34,5.23-1.11.3-2.14.59-3.09.88-.97.29-2.13.65-3.5,1.07Z"/>
    <path class="cls-6" d="m356.03,62.46c-.01-1.26-.04-2.12-.07-2.59-.03-.47-.08-1.21-.13-2.21,3.07-1.37,5.76-2.27,8.07-2.7,1.32-.25,2.55-.31,3.71-.18,1.15.12,2.11.49,2.86,1.1s1.25,1.59,1.5,2.94c.13.69.33,2.25.61,4.69.28,2.44.74,5.62,1.38,9.54-1.1.18-2.19.37-3.27.57-1.05.2-2.17.42-3.34.66-.1-1.38-.45-4.2-1.05-8.46-.38.3-.68.52-.91.66-.22.14-.61.37-1.18.68-.56.31-1,.56-1.32.76-.31.2-.58.43-.79.68-.21.26-.35.5-.42.74s-.07.5-.02.77c.08.42.29.75.65.98.36.24.86.3,1.52.17.23-.04.7-.18.7-.18l.25-.15s.56,2.05.45,3.95c-.93.35-1.82.61-2.68.77-1.38.26-2.58.26-3.58,0s-1.84-.81-2.51-1.66-1.1-1.75-1.27-2.7c-.11-.58-.12-1.16-.04-1.75.08-.59.27-1.18.56-1.78s.67-1.14,1.12-1.61c.46-.47,1.11-.96,1.95-1.46s1.94-1.03,3.28-1.58c.56-.23,1.07-.46,1.53-.69.46-.23.78-.42.97-.56.19-.14.33-.3.43-.46.1-.16.17-.33.19-.49s.03-.33,0-.5c-.09-.47-.33-.79-.74-.98-.4-.19-.95-.21-1.64-.09-1.92.36-4.18,1.39-6.78,3.11Z"/>
    <path class="cls-6" d="m376.44,72.58c.12-2.85.13-5.99.05-9.43-.08-3.43-.21-6.67-.41-9.73,1.36-.08,2.54-.15,3.52-.22,1.14-.08,2.24-.18,3.3-.28l.02,2.55c.34-.49.64-.88.89-1.17.25-.29.57-.57.95-.86s.79-.53,1.24-.72c.44-.2.93-.36,1.46-.49.53-.13,1.09-.22,1.68-.27.82-.06,1.62-.02,2.41.11.79.14,1.46.36,2.01.68.55.32,1.02.73,1.41,1.23.39.5.66,1.06.82,1.66.16.6.26,1.23.31,1.87.04.47.06,1.5.09,3.07l.21,6.79c.04,1.34.1,2.57.19,3.71-1.14.06-2.21.13-3.21.2-1.35.1-2.57.2-3.68.31.02-1.14,0-2.83-.05-5.08-.05-2.24-.11-3.82-.18-4.73-.1-1.41-.42-2.37-.96-2.89-.54-.52-1.18-.75-1.92-.69-.66.05-1.26.33-1.81.85s-.95,1.24-1.2,2.16c-.25.93-.37,2.43-.34,4.51.02,2.08.09,4.19.2,6.33-1.13.06-2.24.13-3.31.21-1.13.08-2.36.19-3.68.31Z"/>
    <path class="cls-6" d="m399.03,71.06c.22-1.59.39-2.88.49-3.88.14-1.36.3-3.06.47-5.1l.36-4.43c.16-2.01.29-3.93.4-5.76.13-2.19.24-4.31.32-6.34,1.59.09,2.78.15,3.58.18.92.04,2.01.07,3.27.09-.39,3.26-.79,7.31-1.21,12.16s-.7,9.3-.86,13.35c-1.31-.08-2.42-.13-3.33-.17-1.04-.04-2.21-.08-3.5-.1Zm7.93-10.46l3.11-4.52,2.34-3.63c1.56.09,2.75.15,3.56.18,1.11.04,2.43.08,3.95.12l-3.58,4.71c-.84,1.08-1.7,2.24-2.58,3.49.73,1.64,2.5,5.28,5.31,10.91-1.33-.08-2.52-.14-3.59-.18-1.09-.04-2.34-.08-3.75-.11l-.96-2.38c-.34-.83-.64-1.52-.89-2.08-.09-.23-.81-1.79-2.15-4.68l-.78-1.81Z"/>
    <path class="cls-6" d="m432.68,73.89c.3-.97.76-2.63,1.37-4.98.61-2.35,1.01-4.02,1.2-5l-4.79-16.48c1.68.35,3.06.62,4.16.83,1.05.2,2.3.43,3.77.68.21,1.31.54,2.89.97,4.73.44,1.85.77,3.48.99,4.91,1.76-2.24,3.16-3.99,4.21-5.23,1.05-1.24,1.8-2.18,2.27-2.8,1.41.3,2.77.57,4.08.82.69.13,1.95.36,3.78.68l-9.62,10.5c-1.92,2.1-2.89,3.21-2.91,3.32l-.05.18-.04.18-.05.18-.65,2.77c-.43,1.84-.88,3.87-1.36,6.09-1.57-.33-2.78-.57-3.64-.73-.88-.17-2.11-.39-3.69-.67Z"/>
    <path class="cls-6" d="m464.01,61.2c1.35.41,2.58,1.02,3.69,1.85,1.11.83,1.96,1.8,2.57,2.91.6,1.11.93,2.3,1,3.57.06,1.27-.1,2.56-.5,3.87-.39,1.28-.93,2.44-1.65,3.49-.71,1.04-1.65,1.94-2.83,2.69s-2.51,1.17-4,1.27-2.99-.08-4.49-.53c-1.38-.42-2.64-1.04-3.78-1.86-1.14-.83-2.01-1.79-2.61-2.9-.6-1.11-.93-2.32-1.01-3.63s.09-2.62.48-3.93c.39-1.3.98-2.48,1.75-3.54.78-1.06,1.76-1.92,2.95-2.59,1.19-.67,2.53-1.06,4.02-1.17,1.49-.11,2.96.06,4.41.49Zm-1.7,5.24c-.7-.21-1.38-.2-2.04.03-.66.23-1.25.69-1.75,1.36-.51.68-.89,1.46-1.16,2.36-.4,1.32-.4,2.41-.01,3.29s1.03,1.46,1.94,1.73c.68.21,1.36.19,2.02-.05s1.25-.71,1.77-1.41c.51-.7.9-1.5,1.17-2.4.22-.74.32-1.44.28-2.11-.04-.66-.25-1.25-.64-1.76-.39-.51-.91-.86-1.58-1.06Z"/>
    <path class="cls-6" d="m486.94,90.58c-1.19-.51-2.19-.93-2.98-1.26-.99-.4-1.99-.8-3-1.18l.95-2.38c-.59.37-1.07.63-1.44.78-.37.15-.75.26-1.14.33-.39.07-.81.1-1.25.09-.44-.01-.93-.08-1.46-.2s-1.06-.29-1.57-.5c-.83-.34-1.57-.77-2.23-1.28-.65-.52-1.16-1.14-1.51-1.88s-.5-1.47-.44-2.2c.06-.73.26-1.52.61-2.38.08-.21.23-.53.44-.95l1.86-3.84c.66-1.42,1.38-2.99,2.16-4.72.48-1.06.92-2.07,1.31-3.03,1.29.55,2.4,1.02,3.31,1.39.92.38,1.95.78,3.07,1.21l-3.19,6.41c-.48.98-.8,1.65-.96,2.01s-.26.61-.31.73c-.5,1.21-.61,2.13-.33,2.74.27.61.72,1.04,1.34,1.3.25.1.52.17.81.19.29.02.58,0,.87-.05.26-.06.51-.16.77-.29.27-.15.54-.35.8-.6.32-.31.62-.67.88-1.08.37-.57.77-1.3,1.22-2.21.32-.67.86-1.82,1.61-3.47l1.6-3.58c1.35.58,2.45,1.04,3.33,1.4.98.4,1.96.79,2.96,1.17-1.44,2.84-2.77,5.56-3.98,8.15-1.22,2.59-2.59,5.66-4.12,9.21Z"/>
    <g>
      <path class="cls-6" d="m331.52,176.35l-.63-2.29-4.16-13.17-3.27-10.12c1.54.02,2.92.04,4.12.04.74,0,1.89-.01,3.47-.04.26,1.11.47,1.96.61,2.53.2.75.59,2.11,1.16,4.07l2.51,8.87c.25.92.56,2.13.92,3.62l.78-2.16,5.94-14.32c.1-.26.22-.56.35-.9.13-.34.34-.91.62-1.71,1.65.02,2.97.04,3.97.04.62,0,1.86-.01,3.71-.04-1.16,2.37-2.47,5.15-3.93,8.32l-5.87,12.81c-.57,1.25-1.2,2.73-1.91,4.44-1.91-.02-3.27-.04-4.09-.04-.76,0-2.2.01-4.31.04Z"/>
      <path class="cls-6" d="m367.82,170.7c-.15.75-.43,2.56-.85,5.43-1.32.29-2.42.48-3.32.57-.9.09-1.81.14-2.73.14-1.35,0-2.59-.1-3.73-.31-1.14-.21-2.12-.57-2.94-1.09s-1.51-1.18-2.07-1.96c-.56-.78-.98-1.71-1.27-2.78-.29-1.07-.43-2.18-.43-3.31,0-1.6.29-3.16.87-4.69.58-1.53,1.33-2.72,2.24-3.58s1.97-1.47,3.16-1.83,2.41-.54,3.66-.54,2.53.17,3.7.5c1.18.33,2.17.91,2.99,1.73.82.82,1.4,1.75,1.75,2.79.35,1.04.52,2.15.52,3.35,0,.71-.07,1.51-.22,2.38l-11.94.02c-.01.2-.02.38-.02.54,0,1.34.44,2.33,1.31,2.97.87.63,1.94.95,3.2.95.75,0,1.6-.1,2.56-.29.96-.19,2.14-.52,3.55-.98Zm-10.48-6.05h5.62c.01-.21.02-.39.02-.54,0-.65-.1-1.21-.31-1.67-.21-.46-.51-.8-.9-1.01-.39-.21-.83-.32-1.32-.32-.34,0-.67.06-.99.18-.32.12-.6.29-.86.52-.26.23-.47.5-.64.8-.17.3-.3.59-.38.87s-.16.67-.24,1.17Z"/>
      <path class="cls-6" d="m383.82,170.85c-.2,1.05-.38,2.07-.53,3.07l-.37,2.29c-1.12.27-2,.45-2.63.52-.63.08-1.24.11-1.83.11-.97,0-1.82-.09-2.57-.27-.75-.18-1.37-.51-1.87-.99s-.84-1.03-1.02-1.66-.27-1.29-.27-1.99c0-.12,0-.35.02-.67.01-.32.05-1.03.12-2.13l.37-6.48h-2.65c.06-.86.11-2,.15-3.41l.05-1.74h2.82c.07-.57.15-1.83.25-3.77l2.92-.66c.53-.11,1.67-.4,3.41-.86-.08,1.64-.14,3.4-.17,5.28h3.88c-.09,2.6-.14,4.32-.14,5.15h-3.92l-.21,4.68c-.02.7-.03,1.15-.03,1.35,0,.6.06,1.1.18,1.5.12.4.33.69.63.86.3.18.63.26,1,.26.27,0,.56-.02.85-.07.29-.04.82-.18,1.57-.4Z"/>
      <path class="cls-6" d="m402.41,170.7c-.15.75-.43,2.56-.85,5.43-1.32.29-2.42.48-3.32.57-.9.09-1.81.14-2.73.14-1.35,0-2.59-.1-3.73-.31-1.14-.21-2.12-.57-2.94-1.09s-1.51-1.18-2.07-1.96c-.56-.78-.98-1.71-1.27-2.78-.29-1.07-.43-2.18-.43-3.31,0-1.6.29-3.16.87-4.69.58-1.53,1.33-2.72,2.24-3.58s1.97-1.47,3.16-1.83,2.41-.54,3.66-.54,2.53.17,3.7.5c1.18.33,2.17.91,2.99,1.73.82.82,1.4,1.75,1.75,2.79.35,1.04.52,2.15.52,3.35,0,.71-.07,1.51-.22,2.38l-11.94.02c-.01.2-.02.38-.02.54,0,1.34.44,2.33,1.31,2.97.87.63,1.94.95,3.2.95.75,0,1.6-.1,2.56-.29.96-.19,2.14-.52,3.55-.98Zm-10.48-6.05h5.62c.01-.21.02-.39.02-.54,0-.65-.1-1.21-.31-1.67-.21-.46-.51-.8-.9-1.01-.39-.21-.83-.32-1.32-.32-.34,0-.67.06-.99.18-.32.12-.6.29-.86.52-.26.23-.47.5-.64.8-.17.3-.3.59-.38.87s-.16.67-.24,1.17Z"/>
      <path class="cls-6" d="m405.72,176.35l.53-8.32.17-4.78c.01-.86.02-1.74.02-2.64s-.01-2.04-.03-3.39c1.37.02,2.46.04,3.27.04.94,0,2.03-.01,3.25-.04l-.07,2.12c.44-.55.81-.96,1.09-1.23.28-.27.61-.51.97-.73.36-.22.74-.38,1.14-.49.4-.11.81-.16,1.24-.16.41,0,.86.06,1.36.19.01,1.36.04,2.49.08,3.37l.12,2.89c-.62-.2-1.21-.3-1.75-.3-.68,0-1.27.11-1.76.33-.49.22-.93.55-1.31.99-.38.44-.68,1-.91,1.66-.23.66-.39,1.71-.48,3.15-.09,1.44-.14,3.08-.14,4.93,0,.65.02,1.46.07,2.42-1.1-.02-2.21-.04-3.32-.04s-2.28.01-3.55.04Z"/>
      <path class="cls-6" d="m440.77,176.35c.33-2.83.58-5.97.75-9.4.17-3.43.28-6.67.31-9.73,1.36.02,2.54.04,3.53.04,1.15,0,2.25-.01,3.31-.04l-.17,2.55c.38-.46.7-.83.97-1.1.27-.27.61-.53,1.01-.79s.83-.47,1.29-.63c.45-.16.95-.29,1.49-.38.54-.09,1.1-.14,1.69-.14.82,0,1.62.1,2.39.29.78.19,1.43.47,1.95.82s.96.8,1.31,1.33c.35.53.58,1.1.7,1.71.11.61.17,1.24.17,1.89,0,.48-.05,1.5-.14,3.07l-.29,6.78c-.06,1.34-.09,2.57-.09,3.71-1.15-.02-2.22-.04-3.22-.04-1.35,0-2.58.01-3.69.04.1-1.14.21-2.83.33-5.07.11-2.24.17-3.82.17-4.73,0-1.41-.25-2.4-.74-2.95s-1.12-.83-1.87-.83c-.66,0-1.28.24-1.87.71-.58.48-1.04,1.17-1.36,2.07-.32.91-.54,2.4-.67,4.47-.13,2.07-.22,4.18-.26,6.33-1.13-.02-2.24-.04-3.32-.04-1.14,0-2.37.01-3.69.04Z"/>
      <path class="cls-6" d="m464.06,176c-.04-.55-.09-1.13-.14-1.73-.05-.61-.12-1.44-.22-2.5l-.14-1.35c1.1.47,2.04.83,2.84,1.06.79.23,1.52.35,2.19.35.55,0,1-.06,1.35-.17s.6-.27.76-.49c.16-.21.24-.43.24-.66,0-.2-.06-.4-.18-.59-.12-.19-.39-.46-.81-.8-.93-.75-1.75-1.43-2.45-2.04-.71-.61-1.24-1.16-1.6-1.63-.36-.47-.63-.99-.82-1.54s-.28-1.12-.28-1.71c0-1.04.27-2,.81-2.9.54-.9,1.33-1.55,2.38-1.96,1.05-.41,2.33-.61,3.84-.61s3.59.23,6.05.67l.27,5.25c-1.37-.6-2.7-.9-3.97-.9-.9,0-1.55.1-1.95.3-.4.2-.61.51-.61.93,0,.14.02.27.07.39.04.12.13.26.25.39.12.14.27.28.44.42.18.14.61.48,1.29,1,.68.52,1.22.96,1.6,1.29.64.55,1.12,1.06,1.46,1.53s.59.97.77,1.5c.18.53.26,1.09.26,1.68,0,.89-.2,1.7-.59,2.45s-.98,1.36-1.77,1.86c-.79.5-1.64.85-2.56,1.04-.92.19-1.87.29-2.84.29-.66,0-1.49-.06-2.48-.19-.99-.12-2.15-.34-3.47-.66Z"/>
    </g>
    <polygon class="cls-2" points="401.59 76.78 410.21 95.99 429.49 99.07 415.54 114.03 418.83 135.15 401.59 125.18 384.34 135.15 387.64 114.03 373.69 99.07 392.96 95.99 401.59 76.78"/>
    <polygon class="cls-2" points="459.5 99.97 459.55 114 470.08 121.91 457.97 126.29 454.39 139.75 446.86 128.43 434.11 128.85 441.57 117.47 437.27 104.26 449.41 108.55 459.5 99.97"/>
    <polygon class="cls-2" points="343.33 98.67 353.22 107.53 365.46 103.6 360.85 116.68 368.02 128.27 355.29 127.49 347.49 138.58 344.23 125.02 332.23 120.28 342.95 112.69 343.33 98.67"/>
    <polygon class="cls-2" points="300.4 195.9 310.98 195.02 315.43 185.75 320.5 195.62 331.18 197.82 323.73 204.79 325.88 215.42 316.21 209.86 306.86 214.24 308.33 203.83 300.4 195.9"/>
    <polygon class="cls-2" points="477.19 213.61 480.05 203.38 472.89 195.99 483.9 194.66 489.67 185.4 493.62 194.81 504.35 196.48 495.78 203.62 496.63 213.91 487.38 208.92 477.19 213.61"/>
    <polygon class="cls-2" points="325.72 17.09 324.19 27.6 332.23 34.01 321.48 36.74 316.93 46.65 311.81 37.82 300.97 37.54 308.56 29.36 306.39 19.27 316.21 23.04 325.72 17.09"/>
    <polygon class="cls-2" points="503.65 39.76 493.07 38.92 487.19 47.36 483.77 36.8 473.58 32.91 482.06 27.23 481.64 16.39 490.29 23.43 500.23 20.62 497.1 30.65 503.65 39.76"/>
    <path class="cls-6" d="m422.6,162.42c.24-1.23.4-2.08.47-2.55.07-.47.17-1.2.32-2.19,3.29-.71,6.11-1.04,8.46-.99,1.34.03,2.56.22,3.67.58,1.1.36,1.96.91,2.57,1.66s.9,1.81.86,3.19c-.02.7-.14,2.27-.36,4.71-.23,2.44-.43,5.65-.61,9.62-1.11-.05-2.22-.09-3.32-.11-1.07-.02-2.2-.04-3.41-.04.19-1.37.42-4.2.71-8.49-.44.21-.78.37-1.02.46-.25.09-.68.23-1.29.42-.62.19-1.1.34-1.45.47-.35.13-.65.3-.91.5-.26.21-.45.42-.56.64s-.17.47-.18.75c0,.42.14.79.44,1.1.3.31.78.47,1.45.48.24,0,.72-.03.72-.03l.28-.09s.13,2.13-.37,3.96c-.98.15-1.91.22-2.78.2-1.41-.03-2.57-.27-3.5-.73s-1.63-1.17-2.11-2.14-.71-1.94-.69-2.9c.01-.59.12-1.16.32-1.72.2-.56.51-1.1.91-1.63s.89-.98,1.43-1.34c.54-.37,1.28-.71,2.21-1.03s2.11-.61,3.54-.87c.59-.11,1.14-.23,1.64-.37.5-.13.85-.25,1.06-.35.21-.1.39-.22.52-.36.13-.14.23-.29.29-.44s.09-.32.1-.49c.01-.47-.16-.84-.52-1.11-.36-.26-.89-.4-1.59-.42-1.95-.04-4.38.51-7.28,1.65Z"/>
  </g>
  <rect class="cls-4" x=".43" y=".43" width="222.26" height="222.26" rx="15.26" ry="15.26"/>
  <rect class="cls-4" x="286.44" y="244.95" width="222.26" height="222.26" rx="15.26" ry="15.26"/>
  <rect class="cls-4" x=".43" y="494.39" width="222.26" height="222.26" rx="15.26" ry="15.26"/>
  <rect class="cls-4" x="282.83" y="494.39" width="222.26" height="222.26" rx="15.26" ry="15.26"/>
  <rect class="cls-4" x="3.74" y="244.95" width="222.26" height="222.26" rx="15.26" ry="15.26"/>
  <g>
    <path class="cls-2" d="m203,294.12c-9.78-11.71-23.42-18.17-38.41-18.26h-.39c-17.93,0-31.18,7.18-39.22,13.25-5.49,4.19-9.49,8.43-11.61,10.99v7.95l.05-.05v9.3h96.86c1.25,4.29,2.07,8.77,2.46,13.4h-99.36v13.4h99.03c-.53,4.48-1.49,8.91-2.89,13.35h-95.03c-.34,0-.72.05-1.06.05v13.25h90.64c-2.26,4.48-5.01,8.91-8.14,13.35H31.11c-3.18-4.48-5.93-9.01-8.24-13.54l-4.96.14c3.81,7.85,8.82,15.66,14.99,23.27,17.49,21.49,44,41.39,78.88,59.17l1.01.53,1.01-.53c35.03-17.4,61.82-37.01,79.51-58.31,8.1-9.73,14.26-19.76,18.31-29.88,3.86-9.59,5.83-19.32,5.88-28.82.05-15.85-5.11-30.79-14.5-42.02Z"/>
    <path class="cls-2" d="m116.26,304.04c1.83-2.36,6.65-8.1,14.5-13.35h62.31c2.31,1.88,4.43,4,6.41,6.36,1.83,2.17,3.47,4.53,4.96,6.99h-88.18Z"/>
    <path class="cls-2" d="m92.7,437.52c-7.28-4.34-14.07-8.82-20.38-13.35h81.77c-6.46,4.58-13.35,9.01-20.77,13.35h-40.62Z"/>
    <path class="cls-2" d="m171.1,410.88H55.54c-5.01-4.39-9.54-8.87-13.69-13.4h143.12c-4.24,4.58-8.82,9.01-13.88,13.4Z"/>
    <path class="cls-2" d="m113.56,300.04c-2.07-2.6-5.83-6.84-11.32-11.08-8-6.17-21.35-13.59-39.42-13.69-14.94-.1-28.67,6.26-38.6,17.83-9.54,11.13-14.84,26.02-14.94,41.92-.05,9.54,1.83,19.23,5.59,28.91.87,2.26,1.88,4.53,2.94,6.79l2.65-.1s.05.05.05.1h92.86v-62.98l.14.24.05-7.95Z"/>
    <polygon class="cls-2" points="86.67 305.79 81.46 303.07 76.25 305.79 77.26 299.96 73.06 295.84 78.89 294.98 81.54 289.7 84.18 294.98 90.01 295.84 85.82 299.96 86.67 305.79"/>
    <polygon class="cls-2" points="86.67 336.27 81.46 333.55 76.25 336.27 77.26 330.44 73.06 326.32 78.89 325.47 81.54 320.18 84.18 325.47 90.01 326.32 85.82 330.44 86.67 336.27"/>
    <polygon class="cls-2" points="52.61 305.79 47.4 303.07 42.19 305.79 43.2 299.96 39 295.84 44.84 294.98 47.48 289.7 50.12 294.98 55.96 295.84 51.76 299.96 52.61 305.79"/>
    <polygon class="cls-2" points="52.61 336.27 47.4 333.55 42.19 336.27 43.2 330.44 39 326.32 44.84 325.47 47.48 320.18 50.12 325.47 55.96 326.32 51.76 330.44 52.61 336.27"/>
    <polygon class="cls-2" points="31.93 344.36 32.94 350.19 27.73 347.47 22.52 350.19 23.53 344.36 19.33 340.24 25.16 339.38 27.81 334.1 30.45 339.38 36.28 340.24 31.93 344.36"/>
    <polygon class="cls-2" points="31.93 314.89 32.94 320.72 27.73 318 22.52 320.72 23.53 314.89 19.33 310.77 25.16 309.91 27.81 304.63 30.45 309.91 36.28 310.77 31.93 314.89"/>
    <polygon class="cls-2" points="47.32 362.95 42.11 365.67 43.12 359.84 38.93 355.71 44.76 354.86 47.4 349.57 50.05 354.86 55.88 355.71 51.68 359.84 52.69 365.67 47.32 362.95"/>
    <polygon class="cls-2" points="67.93 344.36 68.94 350.19 63.73 347.47 58.52 350.19 59.53 344.36 55.33 340.24 61.17 339.38 63.81 334.1 66.45 339.38 72.29 340.24 67.93 344.36"/>
    <polygon class="cls-2" points="67.93 314.89 68.94 320.72 63.73 318 58.52 320.72 59.53 314.89 55.33 310.77 61.17 309.91 63.81 304.63 66.45 309.91 72.29 310.77 67.93 314.89"/>
    <polygon class="cls-2" points="81.38 362.95 76.17 365.67 77.18 359.84 72.98 355.71 78.82 354.86 81.46 349.57 84.1 354.86 89.94 355.71 85.74 359.84 86.75 365.67 81.38 362.95"/>
    <polygon class="cls-2" points="101.99 344.36 103 350.19 97.79 347.47 92.58 350.19 93.59 344.36 89.24 340.24 95.07 339.38 97.71 334.1 100.36 339.38 106.19 340.24 101.99 344.36"/>
    <polygon class="cls-2" points="101.99 314.89 103 320.72 97.79 318 92.58 320.72 93.59 314.89 89.39 310.77 95.22 309.91 97.87 304.63 100.51 309.91 106.34 310.77 101.99 314.89"/>
  </g>
  <g>
    <g>
      <path class="cls-6" d="m306.4,324.96l1.02-8.29,2.52-28.75,1.26-18.95c5.05.06,9.01.08,11.9.08,2.39,0,6.04-.03,10.95-.08.35,2.35.65,4.14.9,5.35.25,1.22.85,3.6,1.82,7.14.97,3.54,1.75,6.6,2.33,9.19s1.47,7.01,2.64,13.27c1.21-4.29,2.3-7.98,3.29-11.07.99-3.09,2.22-6.6,3.7-10.54,1.48-3.94,2.42-6.51,2.82-7.73.4-1.22.94-3.08,1.62-5.6,4.1.06,8.12.08,12.06.08,2.68,0,6.4-.03,11.16-.08-.52,9.21-.86,17.13-1.03,23.75-.36,12.96-.53,21.88-.53,26.74,0,1.01.03,2.84.08,5.5-3.61-.05-6.14-.08-7.59-.08-2.11,0-4.69.03-7.75.08.22-2.46.5-8.32.83-17.58.33-9.26.5-15.17.5-17.74,0-1.12-.03-2.68-.08-4.68l-5.38,16.69-7.72,23.3c-3.55-.05-6-.08-7.34-.08-1.7,0-4.29.03-7.79.08l-5.06-22.56-2.96-12.02c-.11-.46-.23-1.04-.37-1.72-.14-.68-.36-1.89-.66-3.61l-1.03,11.36-1.36,23.3-.12,5.25c-3.77-.05-6.18-.08-7.22-.08-1.42,0-3.88.03-7.38.08Z"/>
      <path class="cls-6" d="m383.2,324.96c.69-6.45,1.18-11.72,1.48-15.79.58-7.44,1.01-14.83,1.3-22.17.29-7.34.43-13.35.43-18.03,3.72.06,7.01.08,9.88.08,1.94,0,4.73-.03,8.36-.08l-.99,14.85-1.24,23.21-.17,5.7c4.71.08,7.77.12,9.19.12,7.19,0,12.64-.1,16.33-.29l-.9,12.39c-7.19-.05-14.04-.08-20.55-.08-8.8,0-16.52.03-23.13.08Z"/>
      <path class="cls-6" d="m431.69,324.96c.52-5.11.89-9.35,1.11-12.71.41-5.96.85-14.12,1.32-24.49.33-7.22.5-12.3.5-15.26v-3.53c4.56.06,7.7.08,9.43.08,1.15,0,4.1-.03,8.85-.08l-1.94,30.64-.99,25.35-8.89-.08c-1.26,0-4.38.03-9.38.08Zm20.55-29.55l9.19-12.5,7.42-10.41,2.3-3.52c5.09.06,8.53.08,10.34.08.49,0,3.76-.03,9.8-.08l-17.31,21.84-3.24,4.39,3.04,4.84,17.14,24.91-10.09-.08c-2.19,0-5.89.03-11.12.08-3.53-6.65-9.35-16.5-17.47-29.55Z"/>
      <path class="cls-6" d="m307.35,392.36c.98-13.59,1.46-24.05,1.46-31.38l-.03-3.28c2.96.03,4.95.05,5.95.05.46,0,2.28-.02,5.46-.05-.31,3.81-.55,7.41-.74,10.82-.24,4.74-.41,9.17-.51,13.29-.1,4.12-.15,7.64-.15,10.55l-5.2-.05c-1.02,0-3.1.02-6.24.05Z"/>
      <path class="cls-6" d="m336.77,392.36l.98-13.86.45-10.11.12-4.49c.03-1.3.05-2.56.05-3.76l-.03-2.44c2.66.03,4.65.05,5.97.05,1.03,0,2.83-.02,5.39-.05-.4,4.86-.66,9.15-.78,12.87h13.82c.08-1.39.16-3.27.24-5.63.08-2.37.11-3.98.11-4.85,0-.46-.02-1.26-.05-2.39l6.01.05c.63,0,2.4-.02,5.33-.05-.6,8.7-.99,15.17-1.16,19.41s-.25,9.32-.25,15.25l-5.54-.05c-.83,0-2.81.02-5.95.05.42-4.03.71-8.72.86-14.07h-13.83l-.43,14.07-5.9-.05c-.75,0-2.56.02-5.44.05Z"/>
      <path class="cls-6" d="m374,392.36l2.11-3.66,13.13-24.73,1.4-2.77c.41-.81.97-1.98,1.7-3.5,2.98.03,5.15.05,6.52.05,2.39,0,4.59-.02,6.63-.05l3.71,10.59,7.54,20.36,1.47,3.71c-2.93-.03-4.71-.05-5.34-.05-1.42,0-3.52.02-6.28.05-.74-2.79-1.82-6.08-3.22-9.85h-12.78c-1.47,2.98-2.99,6.26-4.57,9.85-3.15-.03-5.08-.05-5.79-.05-1.29,0-3.36.02-6.23.05Zm19.66-17.24h7.89c-1.96-5.96-3.03-9.25-3.22-9.86-1.12,2.48-2.06,4.52-2.84,6.11l-1.83,3.75Z"/>
      <path class="cls-6" d="m429.42,392.36l-.94-3.1-6.2-17.85-4.88-13.71c2.3.03,4.35.05,6.14.05,1.1,0,2.82-.02,5.17-.05.39,1.51.7,2.65.92,3.43.3,1.02.88,2.85,1.73,5.51l3.74,12.02c.37,1.25.83,2.89,1.37,4.9l1.17-2.92,8.85-19.41c.15-.36.33-.76.52-1.22.19-.46.5-1.23.93-2.31,2.46.03,4.43.05,5.92.05.93,0,2.78-.02,5.54-.05-1.73,3.22-3.68,6.97-5.86,11.27l-8.75,17.37c-.85,1.69-1.79,3.7-2.84,6.02-2.84-.03-4.88-.05-6.09-.05-1.13,0-3.28.02-6.42.05Z"/>
      <path class="cls-6" d="m458.67,392.36c.42-4.37.73-8.02.93-10.97.2-2.95.39-6.86.59-11.74s.29-8.12.29-9.71l-.03-2.23c3.99.03,8.83.05,14.5.05,5.23,0,9.84-.02,13.84-.05l-.05.83c-.02.2-.06.94-.13,2.2l-.15,2.76c-.03.59-.05,1.19-.05,1.8-3.27-.13-6.01-.2-8.23-.2-2.44,0-4.08,0-4.94.01s-2.19.05-4,.11l-.31,5.84c2,.05,4.33.08,6.98.08.95,0,3.47-.06,7.57-.18-.17,2.17-.33,4.75-.48,7.74-2.93-.03-5.18-.05-6.75-.05-2.33,0-4.95.06-7.84.18l-.3,6.17h2.92c.86,0,2.65-.03,5.35-.08l5.25-.13c.78-.02,2.08-.08,3.91-.2-.2,2.5-.37,5.09-.51,7.77-4.13-.03-8.66-.05-13.58-.05l-11.17.03-3.61.03Z"/>
      <path class="cls-6" d="m303.88,437.96l1.54-2.67,9.6-18.07,1.02-2.02c.3-.59.71-1.45,1.24-2.56,2.18.03,3.77.04,4.77.04,1.74,0,3.36-.01,4.84-.04l2.71,7.74,5.51,14.88,1.08,2.71c-2.14-.02-3.44-.04-3.9-.04-1.04,0-2.57.01-4.59.04-.54-2.04-1.33-4.44-2.35-7.2h-9.34c-1.08,2.18-2.19,4.58-3.34,7.2-2.3-.02-3.72-.04-4.24-.04-.94,0-2.46.01-4.55.04Zm14.37-12.6h5.76c-1.43-4.36-2.22-6.76-2.35-7.21-.82,1.82-1.51,3.3-2.08,4.46l-1.33,2.74Z"/>
      <path class="cls-6" d="m346.68,437.96c.27-2.82.46-5.08.56-6.77.15-2.52.3-5.79.45-9.8.11-3.07.17-5.26.17-6.59v-2.17c1.45.04,2.7.06,3.75.06s2.34-.03,3.99-.08c1.64-.05,3.19-.08,4.64-.08,1.66,0,3.11.1,4.36.3,1.25.2,2.42.61,3.5,1.22,1.08.62,1.99,1.43,2.72,2.43.73,1,1.29,2.17,1.67,3.52.38,1.34.58,2.73.58,4.15s-.15,2.74-.45,4.04c-.3,1.29-.71,2.46-1.24,3.5-.53,1.04-1.15,1.93-1.87,2.68-.71.75-1.52,1.39-2.44,1.92-.68.4-1.37.71-2.06.93-.69.22-1.64.4-2.84.54-1.34.15-2.85.22-4.55.22l-7.5-.06c-.71,0-1.85.02-3.43.06Zm8.02-5.58c.68.06,1.39.09,2.13.09,1.26,0,2.39-.11,3.38-.33s1.86-.7,2.61-1.43c.75-.73,1.3-1.67,1.66-2.81.36-1.14.54-2.32.54-3.52,0-1.47-.27-2.71-.8-3.72-.53-1.01-1.24-1.71-2.12-2.11-.88-.4-2.09-.59-3.61-.59-.89,0-1.94.04-3.15.11l-.62,14.31Z"/>
      <path class="cls-6" d="m375.5,437.96c.24-2.18.42-4.14.56-5.88.14-1.74.25-3.77.35-6.07.1-2.3.17-4.73.22-7.28.05-2.55.08-4.58.08-6.09,1.55.04,2.79.06,3.75.06s2.2-.03,3.62-.08c1.42-.05,2.81-.08,4.16-.08,1.58,0,2.99.06,4.23.19.93.09,1.77.27,2.53.54.76.27,1.4.6,1.92.99.52.39.95.83,1.3,1.31s.62,1.05.81,1.7c.19.65.29,1.35.29,2.09,0,.83-.11,1.61-.32,2.33-.21.72-.54,1.4-.99,2.04-.45.64-1.02,1.19-1.71,1.65-.69.46-1.65.94-2.89,1.42l.96,2.36c.27.66.56,1.32.87,2l2.49,5.44c.11.24.31.7.59,1.39-2.04-.02-3.41-.04-4.12-.04-.89,0-2.35.01-4.38.04-.2-.64-.56-1.84-1.08-3.58-.21-.73-.39-1.29-.54-1.69-.3-.88-.74-2.11-1.32-3.69l-1.91-5.25c.67.12,1.32.19,1.97.19.9,0,1.72-.14,2.46-.41.74-.27,1.29-.69,1.67-1.26.38-.57.57-1.17.57-1.8,0-.53-.14-1-.43-1.4-.29-.4-.73-.7-1.34-.9-.61-.2-1.56-.3-2.83-.3-.43,0-.88,0-1.35.03-.46.02-1,.03-1.62.05-.16,2.54-.3,5.63-.42,9.28-.12,3.65-.2,7.23-.24,10.74-2.07-.02-3.41-.04-4.03-.04-.72,0-2.01.01-3.88.04Z"/>
      <path class="cls-6" d="m401.65,437.96c.31-3.19.54-5.86.68-8.02s.29-5.01.43-8.58c.14-3.57.21-5.93.21-7.1l-.02-1.63c2.92.03,6.45.04,10.59.04,3.82,0,7.19-.01,10.11-.04l-.04.61c-.01.15-.04.68-.09,1.61l-.11,2.02c-.03.43-.04.87-.04,1.31-2.39-.1-4.39-.15-6.01-.15-1.78,0-2.98,0-3.61,0-.62,0-1.6.03-2.92.08l-.23,4.27c1.46.04,3.16.06,5.1.06.69,0,2.54-.04,5.53-.13-.12,1.58-.24,3.47-.35,5.66-2.14-.02-3.78-.04-4.93-.04-1.71,0-3.62.04-5.73.13l-.22,4.51h2.13c.63,0,1.93-.02,3.91-.06l3.84-.09c.57-.01,1.52-.06,2.86-.15-.15,1.83-.27,3.72-.37,5.68-3.02-.02-6.33-.04-9.93-.04l-8.16.02-2.63.02Z"/>
      <path class="cls-6" d="m422.9,437.96l1.54-2.67,9.6-18.07,1.02-2.02c.3-.59.71-1.45,1.24-2.56,2.18.03,3.77.04,4.77.04,1.74,0,3.36-.01,4.84-.04l2.71,7.74,5.51,14.88,1.08,2.71c-2.14-.02-3.44-.04-3.9-.04-1.04,0-2.57.01-4.59.04-.54-2.04-1.33-4.44-2.35-7.2h-9.34c-1.08,2.18-2.19,4.58-3.34,7.2-2.3-.02-3.72-.04-4.24-.04-.94,0-2.46.01-4.55.04Zm14.37-12.6h5.76c-1.43-4.36-2.22-6.76-2.35-7.21-.82,1.82-1.51,3.3-2.08,4.46l-1.33,2.74Z"/>
      <path class="cls-6" d="m456.23,437.96l.46-3.75,1.14-13.01.57-8.57c2.28.03,4.08.04,5.38.04,1.08,0,2.73-.01,4.95-.04.16,1.06.3,1.87.41,2.42.11.55.39,1.63.82,3.23.44,1.6.79,2.99,1.05,4.16.27,1.17.66,3.17,1.19,6,.54-1.94,1.04-3.61,1.49-5.01.45-1.4,1-2.99,1.67-4.77s1.09-2.95,1.27-3.5c.18-.55.42-1.39.73-2.53,1.86.03,3.67.04,5.46.04,1.21,0,2.89-.01,5.05-.04-.24,4.17-.39,7.75-.46,10.74-.16,5.86-.24,9.9-.24,12.1,0,.46.01,1.29.04,2.49-1.63-.02-2.78-.04-3.43-.04-.95,0-2.12.01-3.51.04.1-1.11.23-3.76.38-7.95.15-4.19.23-6.86.23-8.02,0-.51-.01-1.21-.04-2.12l-2.43,7.55-3.49,10.54c-1.61-.02-2.72-.04-3.32-.04-.77,0-1.94.01-3.53.04l-2.29-10.21-1.34-5.44c-.05-.21-.11-.47-.17-.78-.06-.31-.16-.85-.3-1.63l-.47,5.14-.62,10.54-.06,2.38c-1.71-.02-2.8-.04-3.27-.04-.64,0-1.76.01-3.34.04Z"/>
    </g>
    <rect class="cls-2" x="296.95" y="342.56" width="200.87" height="106.83" rx="11.02" ry="11.02"/>
  </g>
  <g>
    <g>
      <path class="cls-6" d="m15.05,514.95h7.25v22.97c0,2.95-.77,5.33-2.31,7.14-1.54,1.81-3.58,2.71-6.11,2.71-1.6,0-3.17-.44-4.71-1.32v-7.27c1.45.96,2.5,1.44,3.13,1.44,1.83,0,2.75-1.16,2.75-3.49v-22.18Z"/>
      <path class="cls-6" d="m28.57,524.88h6.96v14.16c0,.73.17,1.34.51,1.83.34.49.81.73,1.4.73,1.34,0,2.01-.98,2.01-2.94v-13.78h6.96v12.75c0,3.24-.76,5.71-2.27,7.43-1.52,1.71-3.7,2.57-6.56,2.57-3.19,0-5.49-.88-6.9-2.63-1.41-1.75-2.12-3.95-2.12-6.58v-13.54Z"/>
      <path class="cls-6" d="m59.48,524.88v2.99h.12c1.63-2.47,3.61-3.71,5.96-3.71,1.53,0,2.75.51,3.65,1.53.9,1.02,1.35,2.4,1.35,4.14v17.06h-6.96v-13.57c0-.75-.18-1.36-.53-1.84-.35-.48-.81-.72-1.36-.72-1.48,0-2.23.93-2.23,2.8v13.33h-6.94v-22.01h6.94Z"/>
      <path class="cls-6" d="m86.99,540.17h5.86c-1.12,4.94-3.91,7.42-8.37,7.42-2.79,0-5-1.06-6.63-3.18s-2.44-5.05-2.44-8.78c0-3.48.81-6.26,2.44-8.36s3.79-3.15,6.48-3.15c1.63,0,3.19.51,4.69,1.52,1.5,1.01,2.59,2.36,3.28,4.03.69,1.67,1.07,4.31,1.15,7.92h-11.6c.1,3.27,1,4.9,2.73,4.9.59,0,1.12-.21,1.58-.65.46-.43.74-.99.84-1.67Zm-5.05-6.37h5.05c-.05-1.55-.26-2.69-.65-3.43-.38-.74-.99-1.11-1.82-1.11-.93,0-1.59.36-1.99,1.08-.4.72-.6,1.87-.6,3.47Z"/>
      <path class="cls-6" d="m99.36,519.02h6.96v5.86h2.7v5.79h-2.75v16.22h-6.91v-16.27h-2.63v-5.74h2.63v-5.86Z"/>
      <path class="cls-6" d="m123.88,540.17h5.86c-1.12,4.94-3.91,7.42-8.37,7.42-2.79,0-5-1.06-6.63-3.18s-2.44-5.05-2.44-8.78c0-3.48.81-6.26,2.44-8.36s3.79-3.15,6.48-3.15c1.63,0,3.19.51,4.69,1.52,1.5,1.01,2.59,2.36,3.28,4.03.69,1.67,1.07,4.31,1.15,7.92h-11.6c.1,3.27,1,4.9,2.73,4.9.59,0,1.12-.21,1.58-.65.46-.43.74-.99.84-1.67Zm-5.05-6.37h5.05c-.05-1.55-.26-2.69-.65-3.43-.38-.74-.99-1.11-1.82-1.11-.93,0-1.59.36-1.99,1.08-.4.72-.6,1.87-.6,3.47Z"/>
      <path class="cls-6" d="m145.73,540.17h5.86c-1.12,4.94-3.91,7.42-8.37,7.42-2.79,0-5-1.06-6.63-3.18s-2.44-5.05-2.44-8.78c0-3.48.81-6.26,2.44-8.36s3.79-3.15,6.48-3.15c1.63,0,3.19.51,4.69,1.52,1.5,1.01,2.59,2.36,3.28,4.03.69,1.67,1.07,4.31,1.15,7.92h-11.6c.1,3.27,1,4.9,2.73,4.9.59,0,1.12-.21,1.58-.65.46-.43.74-.99.84-1.67Zm-5.05-6.37h5.05c-.05-1.55-.26-2.69-.65-3.43-.38-.74-.99-1.11-1.82-1.11-.93,0-1.59.36-1.99,1.08-.4.72-.6,1.87-.6,3.47Z"/>
      <path class="cls-6" d="m164.17,524.88v2.99h.12c1.63-2.47,3.61-3.71,5.96-3.71,1.53,0,2.75.51,3.65,1.53.9,1.02,1.35,2.4,1.35,4.14v17.06h-6.96v-13.57c0-.75-.18-1.36-.53-1.84-.35-.48-.81-.72-1.36-.72-1.48,0-2.23.93-2.23,2.8v13.33h-6.94v-22.01h6.94Z"/>
      <path class="cls-6" d="m182.21,519.02h6.96v5.86h2.7v5.79h-2.75v16.22h-6.91v-16.27h-2.63v-5.74h2.63v-5.86Z"/>
      <path class="cls-6" d="m196.4,513.18h6.94v14.55h.12c1.71-2.38,3.68-3.57,5.91-3.57,1.59,0,2.84.52,3.72,1.57.89,1.04,1.33,2.52,1.33,4.41v16.75h-6.96v-13.42c0-.86-.17-1.54-.51-2.02-.34-.49-.82-.73-1.42-.73-1.45,0-2.18.98-2.18,2.94v13.23h-6.94v-33.71Z"/>
    </g>
    <path class="cls-5" d="m118.6,662.59c-.84,8.26-1.66,16.53-2.49,24.79-.14,1.44-.33,2.88-.45,4.32-.05.53-.2.75-.79.75-7.68.04-23.05.19-23.05.19l-1.16-3.29c-.26-.74-.33-1.53-.2-2.3.62-3.79,2.55-15.51,2.69-16.15.32-1.51.61-4.59.61-4.59,0,0,.06-2.58-.04-3.86-.09-1.25-.3-2.11-.9-3.21-.85-1.56-1.97-3.06-2.91-4.58-2.05-3.31-4.11-6.61-6.18-9.91-4.12-6.56-8.28-13.1-12.49-19.6-1.49-2.31-1.58-4.55-.51-6.97.98-2.22,2.51-4.05,3.96-5.95,4.58-5.98,9.77-11.44,14.26-17.49,1.01-1.36,1.95-1.53,3.45-.75,7.23,3.75,14.45,7.52,21.69,11.25,1.57.81,2.41,2.08,2.66,3.75.62,4.09-.53,7.78-2.65,11.23-.93,1.51-2,2.91-3.06,4.32-.21.27-.57.36-.88.22-3.47-1.68-6.95-3.35-10.42-5.02-.05-.02-.07-.1-.17-.24,1.17-.28,2.29-.43,3.43-.4,2.04.04,3.99-.45,5.97-.8.5-.09.62-.42.56-.81-.08-.52-.44-.18-.66-.13-3.83.85-7.14-.22-10.11-2.66-1.34-1.11-2.54-2.36-3.69-3.65-.18-.2-.31-.48-.69-.57.42,2.15.77,4.29,1.26,6.39.2.87-.01,1.23-.85,1.49-1.36.43-2.69.99-4.2,1.56,1.47.66,2.76,1.23,4.04,1.81,1.98.9,3.86,1.99,5.66,3.2,1.15.77,1.93,1.87,2.65,3.03,5.08,8.21,9.97,16.54,14.91,24.84.3.51.58,1.05.79,1.61.79,2.06.24,3.52-1.7,4.58-.57.31-1.46.56-1.37,1.24.06.46,1.01.36,1.57.46.85.16,1.6.3,1.6.3,0,0-.08.82-.16,1.59Zm36.05-41.48c-.13-.35-.3-.69-.47-1.03-1.38-2.68-3.29-4.98-5.26-7.24-1.4-1.6-1.41-1.59-2.94-.06-.22.22-.44.45-.66.67-5.92,6.27-11.83,12.55-17.77,18.8-.49.51-.4.74.07,1.16,2.27,2.04,4.52,4.11,6.78,6.16.29.26.56.45.17.9-.37.43-2.2,1.46-2.6,1.16-.91-.68-1.8-1.36-2.58-2.19-5.58-5.89-9.56-8.61-17.82-11.76-1.36-.52-3.71-1.3-5.29-1.09,6.42,11.68,19.27,35.08,19.27,35.08l-4.23-.48s-.66,7.33-.95,10.52c-.6,6.61-1.19,13.23-1.82,19.84-.07.77.15.88.84.86,4.69-.08,9.38-.13,14.07-.14.72,0,.87-.26.87-.93.08-7.15.14-14.29.46-21.43.13-3.08,1.41-5.48,3.41-7.64,1.76-1.89,3.37-3.89,4.58-6.19,1.91-3.62,2.98-7.52,3.81-11.5.8-3.81,1.77-7.6,1.81-11.54.01-1.06,0-1.05-.94-.59-2.23,1.11-4.26,2.56-6.4,3.82-.41.24-.84.61-1.38.1.18-.17.33-.32.5-.46,4.46-3.65,8.91-7.3,13.37-10.94,1.67-1.36,1.85-1.89,1.1-3.88Zm-39.46,2.11c-1.14,1.44-1.12,1.46.35,2.63,2.56,2.04,5.56,3.3,8.44,4.77.37.19.79.21,1.2.22,1.23.04,1.92-.82,2.64-1.61,2.75-3.03,5.48-6.08,8.22-9.12,2.63-2.92,5.28-5.83,7.91-8.77,1-1.12,1.03-1.97.09-2.89-3.11-2.99-6.25-5.95-9.36-8.93-.33-.32-.51-.33-.79.07-.56.8-1.16,1.57-1.76,2.34-5.64,7.1-11.29,14.19-16.92,21.29Zm-3.93-24.63c-.63,1.04-.55,1.35.48,1.98,1.12.69,2.26,1.36,3.41,2.01,1.28.72,2.44,1.57,3.24,2.82,1.46,2.27,1.38,4.88.99,7.51.5-.59.86-1.01,1.22-1.44,3.68-4.42,7.36-8.85,11.05-13.27.47-.56.76-1.07.12-1.71-3.7-3.64-7.39-7.29-11.07-10.95-.42-.42-.5-.15-.72.17-.96,1.48-1.95,2.93-2.92,4.4-1.9,2.85-4.03,5.54-5.8,8.48Zm-17.82-6.44c4.11,1.97,8.11,4.16,12.3,5.94,1.64.7,2.63.37,3.59-1.15,2.04-3.21,4.08-6.42,6.12-9.64.57-.9,1.12-1.82,1.82-2.95-8.2,2.56-16.13,5.04-24.11,7.53.14.13.2.22.28.26Z"/>
    <path class="cls-2" d="m114.71,578.98s15.49-22.99,45.83-22.82c27.05.17,45.57,23.93,45.44,51.49-.17,31.92-25.84,69.52-92.01,101.95-65.83-33.16-91.06-71.06-90.89-102.94.17-27.56,18.96-51.15,46.01-50.98,30.38.17,45.62,23.29,45.62,23.29Z"/>
  </g>
  <g>
    <path class="cls-1" d="m419.78,645.2c-.75.4-1.22,1.29-.64,2.22,7.62,14.29,15.23,28.58,22.85,42.88,1.11,2.09,2.53,5.47,5.46,4.73,3.17-.8,2.7-4.2,1.33-6.39-4.35-6.98-8.7-13.95-13.05-20.92-4.56-7.32-9.13-14.63-13.69-21.95-.52-.97-1.52-1.01-2.25-.56Z"/>
    <path class="cls-1" d="m439.95,621.25c-.32.79-.11,1.77.94,2.12,15.02,6.05,30.04,12.1,45.06,18.16,2.2.88,5.46,2.56,7.22.11,1.91-2.65-.63-4.95-3.09-5.75-7.82-2.55-15.63-5.09-23.45-7.64-8.2-2.67-16.4-5.34-24.6-8.02-1.02-.41-1.82.21-2.08,1.02Z"/>
    <path class="cls-1" d="m317.57,670.79c1.34,2.98,4.6,1.93,6.53.2,6.11-5.49,12.23-10.99,18.34-16.48,6.42-5.77,12.83-11.53,19.24-17.3.87-.68.73-1.67.16-2.31-.53-.67-1.48-.98-2.3-.24-12.75,9.98-25.5,19.96-38.25,29.95-1.86,1.46-4.94,3.45-3.71,6.2Z"/>
    <path class="cls-1" d="m378.1,706.54c2.94,1.42,4.77-1.48,5.13-4.05,1.15-8.14,2.3-16.28,3.45-24.42,1.21-8.54,2.42-17.08,3.62-25.62.23-1.08-.52-1.75-1.37-1.87-.84-.18-1.77.2-1.92,1.29-3.35,15.84-6.7,31.69-10.06,47.53-.49,2.31-1.57,5.82,1.14,7.13Z"/>
    <path class="cls-1" d="m464.94,578.14c-8,3.22-16,6.45-24,9.67-1.05.34-1.26,1.33-.94,2.12.27.81,1.06,1.43,2.08,1.02,15.4-5.02,30.79-10.04,46.19-15.06,2.25-.73,5.82-1.54,5.6-4.55-.23-3.26-3.66-3.39-6.07-2.42-7.63,3.07-15.25,6.15-22.87,9.22Z"/>
    <path class="cls-1" d="m419.27,563.68c-.58.94-.11,1.82.64,2.23.73.45,1.73.41,2.25-.56,8.57-13.74,17.14-27.48,25.7-41.23,1.25-2.01,3.47-4.93,1.37-7.09-2.27-2.34-4.99-.24-6.2,2.05-3.87,7.26-7.73,14.51-11.6,21.77-4.06,7.61-8.11,15.23-12.17,22.83Z"/>
    <path class="cls-1" d="m376.69,509.69c1.7,8.04,3.41,16.09,5.11,24.13,1.79,8.44,3.57,16.88,5.36,25.31.16,1.09,1.09,1.47,1.93,1.29.84-.12,1.59-.79,1.36-1.87-2.27-16.04-4.54-32.07-6.81-48.1-.33-2.34-.51-6-3.51-6.31-3.25-.33-3.97,3.02-3.44,5.55Z"/>
    <path class="cls-1" d="m359.63,576.28c.82.74,1.78.43,2.31-.25.57-.63.71-1.63-.16-2.31-12.04-10.83-24.09-21.65-36.13-32.47-1.76-1.58-4.25-4.27-6.74-2.58-2.7,1.83-1.1,4.87.94,6.46,6.48,5.07,12.95,10.13,19.42,15.2,6.79,5.32,13.58,10.63,20.37,15.95Z"/>
    <path class="cls-1" d="m323.71,607.99c8.62-.29,17.24-.59,25.86-.88,1.1.04,1.63-.82,1.61-1.67.03-.85-.51-1.71-1.61-1.67-16.19-.55-32.37-1.1-48.56-1.65-2.36-.08-6-.54-6.82,2.36-.89,3.14,2.29,4.44,4.87,4.35,8.22-.28,16.43-.56,24.65-.84Z"/>
    <path class="cls-1" d="m356.37,623.79c9.86-3.97,19.71-7.95,29.57-11.92l-5.39,8.58,8.81-3.58c-10.79,17.3-21.57,34.6-32.36,51.9-1.64,2.64-4.56,6.48-1.8,9.33,2.99,3.08,6.56.31,8.16-2.69,5.08-9.54,10.16-19.08,15.25-28.62,5.01-9.41,10.03-18.83,15.04-28.24l1.42,10.29,4.39-8.31c2.85,20.1,5.69,40.21,8.54,60.31.44,3.08.67,7.9,4.62,8.3,4.27.44,5.22-3.98,4.51-7.3-2.24-10.57-4.48-21.15-6.72-31.72-2.2-10.4-4.4-20.8-6.61-31.21l7.77,7.02-1.99-9.28c15.08,13.55,30.16,27.1,45.24,40.65,2.31,2.08,5.59,5.62,8.87,3.39,3.55-2.41,1.44-6.4-1.24-8.5-8.51-6.66-17.02-13.32-25.54-19.98-8.31-6.5-16.62-13-24.92-19.5l10.36.38-7.69-5.98c20.3.69,40.6,1.38,60.9,2.07,3.1.11,7.89.71,8.97-3.11,1.17-4.13-3.01-5.83-6.41-5.72-10.8.37-21.6.74-32.41,1.11-10.45.36-20.89.71-31.34,1.07l7.97-6.2-10.03.37c16.06-12.57,32.12-25.15,48.19-37.72,2.45-1.91,6.5-4.53,4.88-8.15-1.76-3.92-6.06-2.53-8.58-.26-8.04,7.22-16.08,14.45-24.12,21.68-7.72,6.94-15.45,13.89-23.17,20.83l2.06-9.59-7.59,6.87c4.24-20.05,8.49-40.1,12.73-60.15.64-3.04,2.07-7.65-1.5-9.38-3.86-1.87-6.27,1.95-6.74,5.32-1.51,10.7-3.03,21.4-4.54,32.11-1.45,10.28-2.91,20.56-4.36,30.84l-4.5-8.51-1.4,10.14c-9.67-18.14-19.34-36.28-29-54.42-1.46-2.74-3.33-7.19-7.18-6.22-4.16,1.05-3.54,5.52-1.74,8.41,5.72,9.17,11.44,18.34,17.16,27.52,5.53,8.86,11.05,17.72,16.58,26.58l-8.93-3.63,5.35,8.52c-19.06-7.68-38.12-15.36-57.19-23.04-2.88-1.16-7.17-3.37-9.5-.15-2.51,3.48.83,6.51,4.07,7.56,10.28,3.35,20.55,6.7,30.83,10.05,10.02,3.26,20.04,6.53,30.06,9.79l-9.36,3.02,9.3,3c-19.48,6.35-38.95,12.7-58.43,19.05-2.95.96-7.66,2.03-7.37,5.99.31,4.28,4.82,4.45,7.98,3.18,10.03-4.04,20.05-8.08,30.08-12.12Z"/>
  </g>
</svg>