<?xml version="1.0" encoding="UTF-8"?><svg id="uuid-9d0cd3d3-6407-4957-80dc-396f89ec09dd" xmlns="http://www.w3.org/2000/svg" viewBox="0 0 112 126.9"><defs><style>.uuid-346cbf53-4000-4d3b-a868-d5585a11cced{stroke-miterlimit:10;stroke-width:.3px;}.uuid-346cbf53-4000-4d3b-a868-d5585a11cced,.uuid-54d479ff-3421-4710-9770-e1cdce5ff86b,.uuid-c85a3029-119c-4ac0-8fcd-6ce65f078e71{fill:#fff;stroke:#5e50a1;}.uuid-54d479ff-3421-4710-9770-e1cdce5ff86b{stroke-miterlimit:10;stroke-width:.3px;}.uuid-c85a3029-119c-4ac0-8fcd-6ce65f078e71{stroke-miterlimit:10;stroke-width:.3px;}</style></defs><polygon class="uuid-346cbf53-4000-4d3b-a868-d5585a11cced" points="60.5 108.1 73.1 115.4 73.1 100.9 60.5 108.1"/><polygon class="uuid-346cbf53-4000-4d3b-a868-d5585a11cced" points="58.3 126.6 70.8 119.3 58.3 112.1 58.3 126.6"/><polygon class="uuid-346cbf53-4000-4d3b-a868-d5585a11cced" points="92.5 89.7 79.9 96.9 92.5 104.2 92.5 89.7"/><polygon class="uuid-346cbf53-4000-4d3b-a868-d5585a11cced" points="90.2 108.1 77.6 100.9 77.6 115.4 90.2 108.1"/><rect class="uuid-54d479ff-3421-4710-9770-e1cdce5ff86b" x="84" y="97.3" height="14.5"/><polygon class="uuid-346cbf53-4000-4d3b-a868-d5585a11cced" points="111.8 93 111.8 78.5 99.3 85.8 111.8 93"/><polygon class="uuid-346cbf53-4000-4d3b-a868-d5585a11cced" points="111.8 70.6 111.8 56.1 99.3 63.4 111.8 70.6"/><polygon class="uuid-346cbf53-4000-4d3b-a868-d5585a11cced" points="92.5 59.4 92.5 44.9 79.9 52.2 79.9 52.2 92.5 59.4 92.5 59.4"/><polygon class="uuid-346cbf53-4000-4d3b-a868-d5585a11cced" points="60.5 41 73.1 48.2 73.1 33.7 60.5 41"/><polygon class="uuid-346cbf53-4000-4d3b-a868-d5585a11cced" points="53.7 59.4 53.7 59.4 53.7 44.9 41.2 52.2 53.7 59.4"/><polygon class="uuid-346cbf53-4000-4d3b-a868-d5585a11cced" points="53.7 81.8 53.7 67.3 41.2 74.6 53.7 81.8"/><polygon class="uuid-346cbf53-4000-4d3b-a868-d5585a11cced" points="109.6 96.9 97 89.7 97 104.2 109.6 96.9"/><rect class="uuid-54d479ff-3421-4710-9770-e1cdce5ff86b" x="103.4" y="86.1" height="14.5"/><polygon class="uuid-346cbf53-4000-4d3b-a868-d5585a11cced" points="97 67.3 97 81.8 109.6 74.6 97 67.3"/><polygon class="uuid-346cbf53-4000-4d3b-a868-d5585a11cced" points="109.6 74.6 97 67.3 97 67.3 97 67.3 97 67.3 109.6 74.6"/><polygon class="uuid-346cbf53-4000-4d3b-a868-d5585a11cced" points="97 44.9 97 59.4 109.6 52.2 97 44.9"/><polygon class="uuid-346cbf53-4000-4d3b-a868-d5585a11cced" points="90.2 41 77.6 33.7 77.6 48.2 90.2 41"/><polygon class="uuid-c85a3029-119c-4ac0-8fcd-6ce65f078e71" points="77.7 48.3 90.3 41 90.3 41 77.7 48.3"/><polygon class="uuid-346cbf53-4000-4d3b-a868-d5585a11cced" points="58.3 59.4 70.8 52.2 70.8 52.2 70.8 52.2 58.3 44.9 58.3 59.4"/><polygon class="uuid-346cbf53-4000-4d3b-a868-d5585a11cced" points="38.9 56.1 38.9 70.6 51.4 63.4 38.9 56.1"/><rect class="uuid-54d479ff-3421-4710-9770-e1cdce5ff86b" x="45.2" y="52.6" height="14.5"/><polygon class="uuid-346cbf53-4000-4d3b-a868-d5585a11cced" points="58.3 67.3 58.3 81.8 70.8 74.6 58.3 67.3 58.3 67.3"/><polygon class="uuid-346cbf53-4000-4d3b-a868-d5585a11cced" points="38.9 100.9 38.9 115.4 51.4 108.1 38.9 100.9"/><polygon class="uuid-346cbf53-4000-4d3b-a868-d5585a11cced" points="53.7 126.6 53.7 112.1 41.2 119.3 53.7 126.6"/><polygon class="uuid-346cbf53-4000-4d3b-a868-d5585a11cced" points="32 97 19.5 89.7 19.5 89.7 19.5 89.7 19.5 104.2 32 97"/><polygon class="uuid-346cbf53-4000-4d3b-a868-d5585a11cced" points="6.9 82.4 .1 78.5 .1 93 12.6 85.8 6.9 82.4"/><polygon class="uuid-346cbf53-4000-4d3b-a868-d5585a11cced" points=".1 56.2 .1 70.6 12.6 63.4 5.8 59.4 .1 56.2"/><polygon class="uuid-346cbf53-4000-4d3b-a868-d5585a11cced" points=".1 33.8 .1 48.3 12.6 41 5.8 37.1 .1 33.8"/><polygon class="uuid-346cbf53-4000-4d3b-a868-d5585a11cced" points="19.5 37.1 32 29.8 24.1 25.2 19.5 22.6 19.5 37.1"/><polygon class="uuid-346cbf53-4000-4d3b-a868-d5585a11cced" points="38.9 25.9 51.4 18.6 44.4 14.6 38.9 11.4 38.9 25.9"/><polygon class="uuid-346cbf53-4000-4d3b-a868-d5585a11cced" points="70.8 7.4 58.3 .2 58.3 14.7 70.8 7.4"/><polygon class="uuid-346cbf53-4000-4d3b-a868-d5585a11cced" points="34.3 115.4 34.3 100.9 21.8 108.2 34.3 115.4"/><polygon class="uuid-346cbf53-4000-4d3b-a868-d5585a11cced" points="14.9 67.3 2.4 74.6 10 79 14.9 81.8 14.9 67.3"/><path class="uuid-346cbf53-4000-4d3b-a868-d5585a11cced" d="m14.9,81.8l-4.9-2.8,4.9,2.8Z"/><polygon class="uuid-346cbf53-4000-4d3b-a868-d5585a11cced" points="14.9 45 2.4 52.2 8.6 55.8 14.9 59.4 14.9 45"/><path class="uuid-346cbf53-4000-4d3b-a868-d5585a11cced" d="m14.9,59.4l-6.3-3.6,6.3,3.6Z"/><polygon class="uuid-346cbf53-4000-4d3b-a868-d5585a11cced" points="2.4 29.8 8.6 33.4 14.9 37.1 14.9 22.6 2.4 29.8"/><polygon class="uuid-346cbf53-4000-4d3b-a868-d5585a11cced" points="14.9 37.1 14.9 37.1 8.6 33.4 14.9 37.1"/><polygon class="uuid-346cbf53-4000-4d3b-a868-d5585a11cced" points="34.3 11.4 21.8 18.6 28 22.2 34.3 25.9 34.3 11.4"/><polygon class="uuid-346cbf53-4000-4d3b-a868-d5585a11cced" points="28 22.2 34.3 25.9 34.3 25.9 28 22.2"/><rect class="uuid-346cbf53-4000-4d3b-a868-d5585a11cced" x="34.3" y="11.4" height="14.5"/><polygon class="uuid-346cbf53-4000-4d3b-a868-d5585a11cced" points="41.2 7.4 48.8 11.9 53.7 14.7 53.7 .2 41.2 7.4"/><polygon class="uuid-346cbf53-4000-4d3b-a868-d5585a11cced" points="53.7 14.7 53.7 14.7 48.8 11.9 53.7 14.7"/><polygon class="uuid-346cbf53-4000-4d3b-a868-d5585a11cced" points="14.9 104.2 14.9 89.7 2.4 97 14.9 104.2"/></svg>