<?xml version="1.0" encoding="UTF-8"?><svg id="Layer_1" xmlns="http://www.w3.org/2000/svg" viewBox="0 0 653.7 213.5"><defs><style>.cls-1{fill:none;}.cls-1,.cls-2{stroke:#231f20;stroke-miterlimit:10;}.cls-3{letter-spacing:0em;}.cls-2{fill:#fff;}.cls-4{font-family:MyriadPro-Regular, 'Myriad Pro';font-size:12px;}.cls-4,.cls-5{fill:#231f20;}.cls-6{letter-spacing:0em;}.cls-7{letter-spacing:0em;}.cls-8{letter-spacing:0em;}.cls-9{letter-spacing:0em;}.cls-10{letter-spacing:0em;}.cls-11{letter-spacing:0em;}.cls-12{fill:#3a3a3a;}.cls-13{letter-spacing:0em;}.cls-14{letter-spacing:0em;}.cls-15{letter-spacing:0em;}.cls-16{letter-spacing:0em;}</style></defs><g><path class="cls-2" d="M50.2,7.1C44.4,2.4,38.1,.1,30.1,.6c-6.9,.4-12.7,2.2-17.9,6.4-5.1,4.2-7.3,11.1-4.7,17.2,2.1,4.8,2.6,9.4,1.4,14.4-.7,3,.1,5.7,3,7.1,3.3,1.6,4.6,4.1,4,6.5-.7,5.1-.4,8.5,4.1,9.7,.8,.2,1.4,1,2,1.6,6,5.7,12,5.8,17.9,0,.5-.5,1.1-1.3,1.7-1.5,5.2-1.4,5.4-5.4,4.7-9.7-.4-2.5,0-4.8,2.4-5.9,4.6-2.1,5.3-5.6,4.2-10.1-.9-3.7-.6-7.2,1.2-10.7,3.2-6.6,1.5-14-4.1-18.7Z"/><g><path class="cls-2" d="M22.6,22.8c-3.8,0-7.9,3.9-8,7.4,0,3.2,3.3,6,7.1,5.8,3.4-.2,6.3-3.9,6.2-7.9,0-3.1-2.3-5.3-5.3-5.3Z"/><path class="cls-2" d="M39.8,22.8c-3.2,0-5.3,2.2-5.2,5.6,0,4.1,3,7.5,6.4,7.5,3.7,0,6.7-2.6,6.6-5.8,0-3.5-4.1-7.3-7.9-7.4Z"/><path class="cls-2" d="M31.3,32c-1.3,.7-1.8,2-2.4,3-3.7,5.7-3.2,7,2.9,7.9,.1,0,.2,.1,.3,.2,3,1,3.5-.9,3.3-3.2-.3-3.2-2.4-5.4-4.2-7.8Z"/></g></g><text class="cls-4" transform="translate(20 90.5)"><tspan x="0" y="0">S</tspan><tspan class="cls-16" x="5.9" y="0">k</tspan><tspan x="11.6" y="0">ull</tspan></text><rect class="cls-2" x="20.1" y="117.6" width="21.2" height="21.2" rx=".4" ry=".4"/><g><path class="cls-5" d="M.8,156c.5,.3,1.2,.5,1.9,.5,1.1,0,1.7-.6,1.7-1.4s-.4-1.2-1.5-1.6c-1.3-.5-2.1-1.2-2.1-2.3s1-2.2,2.6-2.2,1.4,.2,1.8,.4l-.3,.9c-.3-.1-.8-.4-1.5-.4-1.1,0-1.5,.7-1.5,1.2s.5,1.1,1.6,1.6c1.4,.5,2.1,1.2,2.1,2.4s-.9,2.3-2.8,2.3-1.6-.2-2.1-.5l.3-.9Z"/><path class="cls-5" d="M8,149.8v1.7h1.5v.8h-1.5v3.1c0,.7,.2,1.1,.8,1.1s.5,0,.6,0v.8c-.2,0-.5,.1-.9,.1s-.9-.2-1.1-.4c-.3-.3-.4-.8-.4-1.5v-3.2h-.9v-.8h.9v-1.4l1-.3Z"/><path class="cls-5" d="M13.9,157.3v-.7h-.1c-.3,.5-.9,.9-1.8,.9-1.2,0-1.8-.8-1.8-1.7,0-1.4,1.2-2.2,3.5-2.2h0c0-.6-.1-1.5-1.3-1.5s-1.1,.2-1.5,.4l-.2-.7c.5-.3,1.2-.5,1.9-.5,1.8,0,2.2,1.2,2.2,2.4v2.2c0,.5,0,1,0,1.4h-1Zm-.2-3c-1.2,0-2.5,.2-2.5,1.3s.5,1,1,1,1.2-.5,1.4-1c0-.1,0-.2,0-.3v-1Z"/><path class="cls-5" d="M16.5,153.1c0-.6,0-1.1,0-1.6h.9v1h0c.3-.6,1-1.1,1.9-1.1s2.1,.5,2.1,2.5v3.5h-1.1v-3.3c0-.9-.3-1.7-1.3-1.7s-1.2,.5-1.4,1.1c0,.1,0,.3,0,.5v3.5h-1.1v-4.2Z"/><path class="cls-5" d="M28.2,148.8v7c0,.5,0,1.1,0,1.5h-.9v-1h0c-.3,.6-1,1.1-2,1.1-1.4,0-2.5-1.2-2.5-3,0-1.9,1.2-3.1,2.6-3.1s1.5,.4,1.8,.9h0v-3.5h1.1Zm-1.1,5.1c0-.1,0-.3,0-.4-.2-.7-.7-1.2-1.5-1.2s-1.7,1-1.7,2.2,.6,2.1,1.7,2.1,1.4-.5,1.5-1.3c0-.1,0-.3,0-.5v-1Z"/><path class="cls-5" d="M33.2,157.3v-.7h-.1c-.3,.5-.9,.9-1.8,.9-1.2,0-1.8-.8-1.8-1.7,0-1.4,1.2-2.2,3.5-2.2h0c0-.6-.1-1.5-1.3-1.5s-1.1,.2-1.5,.4l-.2-.7c.5-.3,1.2-.5,1.9-.5,1.8,0,2.2,1.2,2.2,2.4v2.2c0,.5,0,1,0,1.4h-1Zm-.2-3c-1.2,0-2.5,.2-2.5,1.3s.5,1,1,1,1.2-.5,1.4-1c0-.1,0-.2,0-.3v-1Z"/><path class="cls-5" d="M35.7,153.3c0-.7,0-1.3,0-1.8h.9v1.1h0c.3-.8,.9-1.3,1.6-1.3s.2,0,.3,0v1c-.1,0-.2,0-.4,0-.7,0-1.3,.6-1.4,1.4,0,.1,0,.3,0,.5v3.1h-1v-4Z"/><path class="cls-5" d="M44.5,148.8v7c0,.5,0,1.1,0,1.5h-.9v-1h0c-.3,.6-1,1.1-2,1.1-1.4,0-2.5-1.2-2.5-3,0-1.9,1.2-3.1,2.6-3.1s1.5,.4,1.8,.9h0v-3.5h1.1Zm-1.1,5.1c0-.1,0-.3,0-.4-.2-.7-.7-1.2-1.5-1.2s-1.7,1-1.7,2.2,.6,2.1,1.7,2.1,1.4-.5,1.5-1.3c0-.1,0-.3,0-.5v-1Z"/><path class="cls-5" d="M7.1,171.3c-.5,.2-1.4,.4-2.5,.4s-2.2-.3-3-1.1c-.7-.7-1.1-1.8-1.1-3,0-2.4,1.7-4.2,4.4-4.2s1.7,.2,2,.4l-.3,.9c-.4-.2-1-.3-1.8-.3-2,0-3.2,1.2-3.2,3.2s1.2,3.3,3.1,3.3,1.2,0,1.4-.2v-2.4h-1.6v-.8h2.7v3.9Z"/><path class="cls-5" d="M8.6,163.2h1.1v8.5h-1.1v-8.5Z"/><path class="cls-5" d="M12.6,164.3c0,.4-.3,.6-.7,.6s-.6-.3-.6-.6,.3-.7,.7-.7,.6,.3,.6,.7Zm-1.2,7.4v-5.8h1.1v5.8h-1.1Z"/><path class="cls-5" d="M15.5,164.2v1.7h1.5v.8h-1.5v3.1c0,.7,.2,1.1,.8,1.1s.5,0,.6,0v.8c-.2,0-.5,.1-.9,.1s-.9-.2-1.1-.4c-.3-.3-.4-.8-.4-1.5v-3.2h-.9v-.8h.9v-1.4l1-.3Z"/><path class="cls-5" d="M19.5,164.2v1.7h1.5v.8h-1.5v3.1c0,.7,.2,1.1,.8,1.1s.5,0,.6,0v.8c-.2,0-.5,.1-.9,.1s-.9-.2-1.1-.4c-.3-.3-.4-.8-.4-1.5v-3.2h-.9v-.8h.9v-1.4l1-.3Z"/><path class="cls-5" d="M22.7,169c0,1.4,.9,2,2,2s1.2-.1,1.6-.3l.2,.8c-.4,.2-1,.4-1.9,.4-1.8,0-2.9-1.2-2.9-2.9s1-3.1,2.7-3.1,2.4,1.7,2.4,2.7,0,.4,0,.5h-4.1Zm3.1-.8c0-.7-.3-1.7-1.5-1.7s-1.5,1-1.6,1.7h3.1Z"/><path class="cls-5" d="M28.2,167.7c0-.7,0-1.3,0-1.8h.9v1.1h0c.3-.8,.9-1.3,1.6-1.3s.2,0,.3,0v1c-.1,0-.2,0-.4,0-.7,0-1.3,.6-1.4,1.4,0,.1,0,.3,0,.5v3.1h-1v-4Z"/><path class="cls-5" d="M35.7,164.5h-2.5v-.9h6v.9h-2.5v7.2h-1.1v-7.2Z"/><path class="cls-5" d="M41.1,164.3c0,.4-.3,.6-.7,.6s-.6-.3-.6-.6,.3-.7,.7-.7,.6,.3,.6,.7Zm-1.2,7.4v-5.8h1.1v5.8h-1.1Z"/><path class="cls-5" d="M42.8,163.2h1.1v8.5h-1.1v-8.5Z"/><path class="cls-5" d="M46.2,169c0,1.4,.9,2,2,2s1.2-.1,1.6-.3l.2,.8c-.4,.2-1,.4-1.9,.4-1.8,0-2.9-1.2-2.9-2.9s1-3.1,2.7-3.1,2.4,1.7,2.4,2.7,0,.4,0,.5h-4.1Zm3.1-.8c0-.7-.3-1.7-1.5-1.7s-1.5,1-1.6,1.7h3.1Z"/><path class="cls-5" d="M1,186.1v-5H.2v-.8H1v-.3c0-.8,.2-1.6,.7-2,.4-.4,.9-.5,1.4-.5s.7,0,.9,.2v.8c-.3,0-.5-.1-.8-.1-.9,0-1.1,.8-1.1,1.7v.3h1.4v.8h-1.4v5H1Z"/><path class="cls-5" d="M9.5,183.2c0,2.1-1.5,3.1-2.9,3.1s-2.8-1.2-2.8-3,1.3-3.1,2.9-3.1,2.8,1.2,2.8,3Zm-4.6,0c0,1.3,.7,2.2,1.8,2.2s1.8-.9,1.8-2.3-.5-2.2-1.7-2.2-1.8,1.2-1.8,2.3Z"/><path class="cls-5" d="M10.8,182.1c0-.7,0-1.3,0-1.8h.9v1.1h0c.3-.8,.9-1.3,1.6-1.3s.2,0,.3,0v1c-.1,0-.2,0-.4,0-.7,0-1.3,.6-1.4,1.4,0,.1,0,.3,0,.5v3.1h-1v-4Z"/><path class="cls-5" d="M17.3,178.1c.5-.1,1.3-.2,2-.2,1.1,0,1.8,.2,2.3,.7,.4,.4,.6,.9,.6,1.5,0,1.1-.7,1.8-1.5,2.1h0c.6,.3,1,.8,1.2,1.7,.3,1.1,.5,1.9,.6,2.2h-1.1c-.1-.2-.3-.9-.5-1.9-.2-1.1-.7-1.5-1.6-1.6h-1v3.5h-1v-8Zm1,3.7h1.1c1.1,0,1.8-.6,1.8-1.5s-.8-1.5-1.9-1.5c-.5,0-.9,0-1,0v3Z"/><path class="cls-5" d="M24.4,183.4c0,1.4,.9,2,2,2s1.2-.1,1.6-.3l.2,.8c-.4,.2-1,.4-1.9,.4-1.8,0-2.9-1.2-2.9-2.9s1-3.1,2.7-3.1,2.4,1.7,2.4,2.7,0,.4,0,.5h-4.1Zm3.1-.8c0-.7-.3-1.7-1.5-1.7s-1.5,1-1.6,1.7h3.1Z"/><path class="cls-5" d="M29.9,186.1v-5h-.8v-.8h.8v-.3c0-.8,.2-1.6,.7-2,.4-.4,.9-.5,1.4-.5s.7,0,.9,.2v.8c-.3,0-.5-.1-.8-.1-.9,0-1.1,.8-1.1,1.7v.3h1.4v.8h-1.4v5h-1Z"/><path class="cls-5" d="M33.7,183.4c0,1.4,.9,2,2,2s1.2-.1,1.6-.3l.2,.8c-.4,.2-1,.4-1.9,.4-1.8,0-2.9-1.2-2.9-2.9s1-3.1,2.7-3.1,2.4,1.7,2.4,2.7,0,.4,0,.5h-4.1Zm3.1-.8c0-.7-.3-1.7-1.5-1.7s-1.5,1-1.6,1.7h3.1Z"/><path class="cls-5" d="M39.2,182.1c0-.7,0-1.3,0-1.8h.9v1.1h0c.3-.8,.9-1.3,1.6-1.3s.2,0,.3,0v1c-.1,0-.2,0-.4,0-.7,0-1.3,.6-1.4,1.4,0,.1,0,.3,0,.5v3.1h-1v-4Z"/><path class="cls-5" d="M43.5,183.4c0,1.4,.9,2,2,2s1.2-.1,1.6-.3l.2,.8c-.4,.2-1,.4-1.9,.4-1.8,0-2.9-1.2-2.9-2.9s1-3.1,2.7-3.1,2.4,1.7,2.4,2.7,0,.4,0,.5h-4.1Zm3.1-.8c0-.7-.3-1.7-1.5-1.7s-1.5,1-1.6,1.7h3.1Z"/><path class="cls-5" d="M49,181.9c0-.6,0-1.1,0-1.6h.9v1h0c.3-.6,1-1.1,1.9-1.1s2.1,.5,2.1,2.5v3.5h-1.1v-3.3c0-.9-.3-1.7-1.3-1.7s-1.2,.5-1.4,1.1c0,.1,0,.3,0,.5v3.5h-1.1v-4.2Z"/><path class="cls-5" d="M59.8,185.9c-.3,.1-.9,.3-1.7,.3-1.8,0-2.9-1.2-2.9-3s1.2-3.1,3.1-3.1,1.2,.2,1.5,.3l-.2,.8c-.3-.1-.6-.3-1.2-.3-1.3,0-2.1,1-2.1,2.2s.9,2.2,2,2.2,1-.2,1.3-.3l.2,.8Z"/><path class="cls-5" d="M61.5,183.4c0,1.4,.9,2,2,2s1.2-.1,1.6-.3l.2,.8c-.4,.2-1,.4-1.9,.4-1.8,0-2.9-1.2-2.9-2.9s1-3.1,2.7-3.1,2.4,1.7,2.4,2.7,0,.4,0,.5h-4.1Zm3.1-.8c0-.7-.3-1.7-1.5-1.7s-1.5,1-1.6,1.7h3.1Z"/></g><g><path class="cls-1" d="M150.6,68.6c-5.9-1.6-11.8-3.1-17.7-4.6-.4-.1-.8-.3-1.2-.5-4.7-2.7-9.4-5.4-14.2-8.1-.2-.1-.6-.2-.5-.5,0-.2,.4-.2,.6-.3,3.2-1,5.1-3.3,5.1-6.2-.2-.6,0-1.2,0-1.9,0-.8-.2-1.7,0-2.5,0-1.8-.5-3.5-1.1-5.2-1-2.7-2.6-5.2-4.7-7.5-.1-.2-.4-.3-.3-.5,.2-.2,.5,0,.7,0,.9,.2,1.8,.5,2.7,.7,0-.3-.3-.4-.4-.6-1.2-1.2-2.6-2.2-4-3.2-.2-.1-.6-.2-.5-.5,0-.3,.5-.3,.8-.4,3.1-.7,6.1-.5,9,.5,.3,0,.5,.2,.9,.2-.3-.2-.4-.3-.6-.4-2.9-1.7-6.1-2.9-9.5-3.7-2.7-.7-5.4-.6-8,.4-.4,.1-.7,.2-1.1,.1-1.7-.2-3.4-.4-5.1-.5,0,.3,.2,.3,.3,.4,1.4,.9,2.9,1.7,4.6,2.4,.6,.2,.7,.5,.3,.9-.6,.8-1.4,1.5-2.4,2-.2,.1-.6,.2-.7,.4,.2,0,.4,0,.6,.2,.5,.2,1.3-.2,1.5,.4,.1,.4-.4,.9-.7,1.3-.5,.8-.4,1,.7,1.2,.9,.2,1.8,.1,2.8,.1-.1,.3-.4,.3-.6,.4-7,3.2-14.4,4.2-22.2,3-1.5-.2-2.7-.7-3.9-1.4-1.9-1.2-3.9-2.2-5.8-3.3-.2-.1-.4-.2-.6-.3-.4-.2-.8-.1-1.1,.2-.3,.3-.2,.7,.2,.9,.1,.1,.3,.2,.5,.3,7.6,4.5,15.3,8.9,22.9,13.3,.5,.3,.6,.6,.3,1.1-1.2,2.1-1.6,4.4-1,6.7,1,4.1,2.7,8.1,4.9,11.8,.3,.5,.3,1,0,1.5-.6,1-1.3,1.9-2.2,2.6-.3,.2-.6,.4-.4,.8,.2,.4,.6,.4,1,.4,2.1,0,4.1-.3,5.9-1.1,.5-.2,.8-.2,1.2,0,1.8,1.1,3.8,2,5.9,2.8,.9,.3,1.9,.6,3,1-.1-.4-.2-.6-.3-.8-1.9-3.9-3.3-7.9-4.3-12.1-.4-1.8,.2-3.4,1.9-4.6,.5-.4,1-.5,1.6,0,4.9,2.8,9.8,5.6,14.7,8.5,.4,.2,.7,.5,.9,.8,3.7,4.3,7.4,8.6,11.1,12.8,.1,.2,.2,.4,.6,.4,.2-1.1,.5-2.2,.7-3.2,0-.5,.3-.7,.9-.8,.7,0,1.4-.2,2.2-.3,.5,0,.8-.3,.8-.7,0-.7,.2-1.3,.2-2,0-.5,.3-.8,.8-1,1.1-.5,2.2-1.1,3.2-1.7-.3-.3-.6-.3-.9-.4Z"/><path class="cls-1" d="M107.9,42c-.1-.7-.3-1.3-.4-2-.1-.6-.5-.7-1.2-.6-2.7,.4-5.4,.6-8.1,.6-1.6-.1-3.2-.1-4.7,0h-2.5c.5,.3,.8,.5,1.2,.7,2.1,1.2,4.2,2.4,6.3,3.7,.5,.3,.8,.3,1.3,0,2.2-1.1,4.5-1.4,7-.8,.7,.2,1.1,.1,1.2-.5,.2-.4,.2-.7,0-1.1Z"/></g><text class="cls-4" transform="translate(93.7 90.2)"><tspan class="cls-15" x="0" y="0">W</tspan><tspan x="10" y="0">i</tspan><tspan class="cls-13" x="12.8" y="0">t</tspan><tspan x="16.7" y="0">ch</tspan></text><path class="cls-1" d="M221,43.6c-.2-.4-.4-.4-.7,0-.9,1-2,1.8-3.3,2.2-1.8,.7-3.6,1.1-5.4,.3-3.5-1.6-7.1-.6-9.4,2.6-.3,.4-.4,.3-.7,0-.7-.8-1.6-1.4-2.6-1.6-.7-.1-.7-.5-.6-1.1,.6-3.4,3.3-5.8,6.6-5.7,1.7,0,3.2-.5,4.5-1.7,1-.9,1.9-1.8,2.8-2.7,.7-.7,1.1-1.5,1.4-2.4,.2-.8,.3-1.7,0-2.7-.1,.3-.2,.4-.3,.6-.9,2-2.2,3.6-3.8,5-1.6,1.4-3.3,2.3-5.4,2.2-1,0-1.9,.2-2.8,.6-2.8,1.3-4.5,3.6-5,6.9,0,.2,0,.6-.3,.7-1,.2-2.1,.4-3.2,.6,.5-1.4,.7-2.7,.7-4.1,.1-1.5,.2-3.1,0-4.6,0-1.3-.2-2.5-.4-3.7-.2-1.6-.9-3-2.1-4.1-2.6-2.4-5.3-4.6-8.1-6.6-1.2-.8-2.1-1.9-2.6-3.3,0-.2,0-.4-.2-.6-.2,0-.2,.2-.3,.4-.7,1.8-.2,3.8,1.4,5,2,1.5,4,3,6,4.6,2,1.5,3.3,3.6,3.6,6.2,.4,2.9,.4,5.8,.4,8.6,0,.3,0,.7-.3,1-.1-.3-.2-.4-.3-.6-3.3-7.5-12.3-9.7-18.3-4.4-.3,.3-.4,.5-.4,1,.7,4.8,3.3,8.1,7.6,9.8,.9,.4,1.9,.5,2.9,.6,0,.2,0,.2-.1,.3-2.5,1.8-5.2,3.5-8,4.6-1.6,.6-3.1,1-4.8,.4-1.2-.4-2.4-.1-3.6,.5-.4,.2-.5,.4-.1,.8,1.7,1.6,3.7,2.2,5.9,1.7,1.7-.3,3.3-.9,4.9-1.8,3.4-1.8,6.7-3.8,10-5.7,.9-.5,1.7-1,2.6-1.2,.9-.2,1.6-.2,2.2,.7,.2,.3,.4,.5,.6,.7,.3,.3,.3,.5,0,.8-1,1.6-2.4,2.8-4,3.5-1.7,.7-2.4,2.1-2.4,4,0,2.3,0,4.6,0,6.9,0,2.4-1.1,4.1-3.1,5.3-.1,0-.4,0-.3,.3,2.9,.3,5.2-1.8,5.4-4.8,.2-2.8,.4-5.7,.5-8.5,0-.5,.2-.7,.6-.9,2.1-.8,3.7-2.2,4.8-4.2,.2-.4,.4-.5,.8-.3,1.4,.8,2.9,1.1,4.5,1,.6,0,.8,.1,.9,.7,.7,4.1,0,8-2.1,11.5-.3,.5-.6,1.1-.9,1.6-.4,.8-.3,1.6,.2,2.1,.4,.5,.9,.9,1.3,1.4,.4,.4,.9,.5,1.5,.2,.4-.2,.5-.4,.2-.8-.3-.4-.6-.8-.9-1.1-.4-.4-.5-.8-.3-1.3,.2-.9,.5-1.7,1-2.4,2-3.5,2.7-7.3,2.3-11.3,0-.3,0-.6,.1-.9,.7,.7,1.5,1.3,2.5,1.5,.3,0,.2,.3,.2,.5-.2,2.2,.8,4.1,2.7,5.1,1,.5,2.1,1,3.2,1.5,.6,.3,1.2,.1,1.3-.4,.2-.6,0-1-.8-1.3-1-.3-2-.8-2.9-1.4-.9-.6-1.5-1.4-1.7-2.5,0-.3,0-.5,0-.8,0-.3,.2-.4,.4-.1,.5,.5,1,.8,1.6,.9,.7,.2,1.3,.2,2-.2-1.7-.7-2.6-1.6-3.1-2.9-.4-1,0-1.9,1.1-2,1.2-.2,2.4,.4,3,1.6,0,.2,0,.4,.3,.5,.2-1,0-1.5-.8-2.8,1.4-.7,3.7-.3,4.7,.8,.4,.4,.5,.9,.4,1.5-.1,.7,0,1.2,.6,1.3,.5,.1,1-.3,1.1-1,.2-1.1-.1-2.1-.9-2.9-.6-.7-1.4-1-2.2-1.3-2-.6-3.9-.3-5.9,.2-.3,0-.5,.2-.7-.2-1.3-1.7-3-2.2-5-1.5-.1,0-.3,.2-.4,0-.1-.2,0-.3,0-.4,.7-1.1,1.6-2,2.8-2.5,1.5-.7,3-.9,4.5,0,.5,.3,1.1,.5,1.7,.5,.6,.1,1.2,0,1.8,0,1.7,0,3.3-.5,4.8-1.3,.7-.4,1.4-.8,1.9-1.4,.5-.5,.6-1.2,.3-1.9Z"/><text class="cls-4" transform="translate(178.2 92.1)"><tspan class="cls-10" x="0" y="0">A</tspan><tspan class="cls-8" x="7.3" y="0">n</tspan><tspan class="cls-9" x="13.9" y="0">t</tspan></text><g><path class="cls-2" d="M274.5,46.8c-.4,0-.8,.1-1.2-.1,.4-1.3,.1-2.6,.3-4,0,0,0,0-.1-.1,0-.1,0-.2,0-.4,0-1.5,0-3,0-4.5-.2-.3,0-.4,.1-.6,.7-1.3,1.2-2.7,1.3-4.3,0-1.5-.1-2.9-.6-4.2-1.1-2.9-2.7-5.5-5.1-7.4-.4-.3-.7-.3-1.1,0-1.3,.8-2.5,1.7-3.7,2.7-.8,.7-1.5,1.6-2,2.6-1.2,2.1-1.6,4.3-1.1,6.7,.1,.7,.4,1.4,.2,2.1-.4,1-.6,2-.4,3.1,0,.6,0,1.2-.1,1.8,0,.2,0,.4-.2,.4,0,.1-.1,.2-.1,.3,.1,1,0,1.9,.2,2.9,0,0,0,0,0,0,0,.2-.3,.3-.4,.5-.3,.9-.7,1.8-1,2.7,0,0,.3,0,.3,.2,0,.7,.2,1.5-.1,2.2,0,1.2,.2,2.4,.4,3.6,0,0,.2,0,.2,0,.1,1.1,.8,1.9,1.3,2.8,0,.2,.2,.3,.4,.3,.1,0,.2,0,.3,.2,2.6,1.9,5.3,2,8,.4,.1,0,.3-.1,.4-.2,.4,0,.5-.2,.7-.4,.6-.6,1-1.3,1.6-1.9,.2-.6,.2-1.3,.6-1.9,.2-.2,.2-.5,.1-.8-.1-.6-.2-1.2-.4-1.7,0,0,0,0,.1-.1,0-.6-.1-1.1,0-1.7,0-.7,.2-.9,.9-1,.4,0,.8,0,1.2,0,.2,0,.5,0,.6-.3-.5-.1-1.1,0-1.6-.1Z"/><g><path class="cls-2" d="M273.4,42.6c1.9-1.3,3.6-2.8,5.1-4.6,1.4-1.6,2.7-3.4,4.3-4.8,1.6-1.4,3.3-2.4,5.4-2.6,.8-.1,1.5-.5,2.2-1,.8-.6,1.5-1.3,2.2-2.1,0,0,.2-.2,.1-.4-.2,0-.4,0-.6,0-4.7,.1-8.8,1.8-12.3,5-1.1,1-2.1,2.1-3.2,3.2-.9,.9-1.8,1.9-3,2.4-.3,.2-.4,.4-.4,.7,0,1.2,0,2.4,0,3.7,0,.2,0,.4,.3,.5Z"/><path class="cls-2" d="M293,35.5c-3.8,.7-7.5,2.1-11,3.7-2.8,1.2-5.5,2.7-8.4,3.5-.1,.1-.3,.2-.3,.4,0,1.2-.1,2.4,0,3.6,.4-.3,.8-.6,1.3-.9,1.9-1.2,4-1.9,6.1-2.8,3.1-1.4,6.3-2.5,9.3-4.2,1.5-.8,3.1-1.6,4.4-2.9,.2-.2,.4-.4,.5-.7-.6,.1-1.2,.2-1.8,.3Z"/><path class="cls-2" d="M260.2,52.4c-.1-.8-.2-1.6-.3-2.3,0-.2,0-.4-.3-.5-1.4,1.1-2.9,2-4.5,2.8-1,.5-1.9,1.1-2.9,1.7-1.7,1.2-2.8,2.8-3.3,4.8,0,.4-.3,.6-.5,.9-1,1-2,2-2.8,3.1-1.1,1.4-1.9,3.1-2.3,4.9-.1,.6-.2,1.2,0,1.9,1.1-1.5,2.1-2.8,3.2-4.1,1-1.3,1.9-2.7,3.2-3.8,.6-.5,1-1.2,1.4-2,.3-.7,.7-1.4,1-2.2,.3-.7,.7-1.1,1.3-1.3,2.2-1,4.4-2.1,6.6-3.1,.2-.2,.2-.5,.2-.7Z"/><path class="cls-2" d="M273.5,49.9c1.6,0,3.1,.2,4.7,.3,1.7,.1,3.4,.1,5.1,.5,3.7,.9,6.7,3,9.1,6,.5,.6,1,1.2,1.5,1.9,0-.2,0-.3,0-.3-1.2-4.6-3.9-8-8.2-9.9-3-1.3-6.3-1.4-9.6-1.5-.8,0-1.6,0-2.4,0-.4,0-.6,.2-.6,.6,0,.6,0,1.2,0,1.7,0,.3,.1,.5,.4,.7Z"/><path class="cls-2" d="M286.9,57.3c-4-3.3-8.8-5.3-13.5-7.3-.2,0-.2,.3-.2,.5,.1,.7,.2,1.4,.4,2,4.9,1.6,9.3,4.2,13.1,7.9,2.6,2.6,4.8,5.5,6.9,8.6,.1,.2,.2,.4,.4,.5,0-.2,0-.4,0-.6-.9-4.8-3.4-8.5-7-11.5Z"/><path class="cls-2" d="M246.8,49.3c1.8-.9,3.7-1.7,5.6-2.5,.6-.2,1.2-.3,1.8-.2,1.8,.2,3.6,.4,5.4,.6,.2,0,.4-.1,.4-.3,.3-1,.8-1.9,.9-2.9-1,0-2-.3-3-.5-2.6-.7-5.1-.4-7.4,1.1-2.6,1.6-5.3,3-8.3,3.6-.5,.1-1.1,.2-1.7,.3,.1,.1,.2,.2,.2,.3,.2,.1,.3,.3,.5,.4,1.8,1.2,3.7,1.3,5.6,.3Z"/><path class="cls-2" d="M253.7,22.3c0,2.2,.2,4.4,.8,6.5,1.1,3.9,3.2,7.1,6.5,9.5,.2-1,.5-2,.4-3.1-1.6-1.2-2.5-2.8-3.2-4.7-.8-2.1-1.3-4.3-1.7-6.5-.4-1.8-.6-3.6-1.2-5.3-.2-.7-.5-1.3-1-1.8-.1-.1-.3-.4-.5-.3-.2,0,0,.3,0,.5,0,1.7,0,3.4,0,5.1Z"/><path class="cls-2" d="M251.2,39.8c1.5-.6,3-.5,4.4,.4,1.8,1.2,3.5,2.4,5.3,3.6,.3-.6,.1-1.3,.1-2,0-.4,0-.9-.2-1.2-.9-.4-1.7-1-2.4-1.7-1.7-1.9-3.8-2.3-6.2-1.6-2.9,.9-5.7,1.9-8.7,2.6,0,0-.2,0-.2,.2,.2,0,.3,.1,.5,.2,2.5,.7,4.9,.6,7.3-.4Z"/><path class="cls-2" d="M272.6,54.6c-.6,.7-1.2,1.5-1.8,2.2-.2,.8-.4,1.6-.4,2.4,0,1.7-.6,3.2-1.6,4.4-.2,.2-.4,.5-.6,.8,2.2-.3,4.3-2.4,4.6-4.6,.2-1.8,.2-3.6,.4-5.3-.3-.3-.4,0-.5,.2Z"/><path class="cls-2" d="M262,56.3c-.5-1.1-1.1-2.1-1.7-3.2-.2,1.4-.4,2.9-.4,4.3,.1,3,2.1,5.6,5,6.2,.1,0,.3,.1,.5,0-2.1-2-3.6-4.3-3.4-7.4Z"/></g></g><text class="cls-4" transform="translate(246.1 91.7)"><tspan x="0" y="0">Spider 1</tspan></text><text class="cls-4" transform="translate(317.3 93)"><tspan x="0" y="0">Spider 2</tspan></text><g><path class="cls-2" d="M364.1,35c-.4-.3-.7,0-1.1,.1-.8,.4-1.6,1-2.2,1.6-1.2,1.2-2.4,2.3-3.7,3.5-.2,.2-.5,.4-.8,.2-.4-.2-.7,0-1.1,.1-1.1,.5-2.3,.8-3.5,1.2-.5,.2-1,.2-1.6,0-.4-.1-.7-.3-.8-.7,0-.4,.2-.7,.5-1,.9-.7,1.7-1.4,2.5-2.2,1.5-1.6,2.8-3.3,3.4-5.4,.3-.9,.3-1.7,0-2.6-.2-.5-.2-.9,0-1.4,.9-3.7,.8-7.4-.7-11-.3-.6-.6-1.3-1.2-1.7-.3-.2-.6-.5-.9-.2-.3,.2-.2,.6-.2,.9,0,3.1,0,6.2-.2,9.3,0,.3,0,.5-.3,.7-.6,.7-.9,1.5-1,2.5-.3,1.8-.8,3.6-1.4,5.3-.2,.6-.6,1.1-1.1,1.4-.2-.2-.2-.4-.2-.6-.7-2.6-2.2-4.6-4.5-5.9-3.8-2-7.8-2.2-11.8-.6-2.9,1.1-4.8,3.2-5.8,6.2-.1,.3,0,.9-.3,.9-.4,0-.6-.4-.9-.8-.1-.2-.2-.4-.3-.6-.6-1.7-1.1-3.4-1.4-5.1-.1-1-.4-1.9-1.1-2.6-.2-.2-.2-.5-.2-.7-.2-3.1-.2-6.1-.2-9.2,0-.3,.2-.8-.3-1-.4-.2-.8,.1-1.1,.4-.2,.2-.4,.4-.6,.7-.4,.6-.7,1.3-.9,2-1,3.3-1.1,6.7-.2,10.1,0,.3,.1,.6,0,1-.4,.9-.4,1.9,0,2.8,.4,1.1,.9,2.2,1.6,3.1,1.2,1.7,2.7,3.2,4.3,4.4,.3,.2,.5,.5,.5,.9,0,.4-.4,.6-.7,.7-.5,.2-1,.2-1.6,0-1.2-.4-2.4-.8-3.6-1.2-.3-.1-.7-.3-1.1-.1-.4,.2-.6,0-.9-.3-1.1-1.1-2.3-2.2-3.4-3.3-.7-.7-1.4-1.3-2.3-1.7-.2-.1-.4-.2-.7-.3-.6-.1-.8,.1-.7,.7,.1,.8,.4,1.5,.9,2.2,1.4,2.2,3.1,4,5.1,5.6,.3,.2,.4,.4,.5,.8,.2,.8,.7,1.3,1.4,1.6,.7,.3,1.3,.5,2,.5,1.8,.2,3.6,0,5.4,0,.5,0,.6,.1,.3,.5-.6,1.1-1.5,2-2.4,2.8-1.7,1.5-3.2,3.2-4.6,5.1-.5,.7-1,1.6-1,2.5,.1,1.2-.3,2.3-.7,3.4-.1,.3-.2,.7-.3,1-.4,1.7-.7,3.5-.2,5.3,0,.4,.2,1,.6,1,.5,0,.7-.5,.9-.9,.9-1.9,1.7-3.9,2.3-6,.1-.4,.3-.7,.6-1,1.3-1.3,2.4-2.8,3.3-4.5,1-1.8,2.1-3.5,3.2-5.4,.4,.9,.7,1.7,1.1,2.4,.3,.5,.2,.8-.2,1.3-2.5,3.2-3.5,6.8-3.3,10.8,0,.5,.2,1.1,.7,1.3,.4,.1,.5,.4,.6,.7,.6,2,1.5,3.8,2.9,5.3,.6,.7,1.3,1.1,2.1,1.4,.4,.1,.5,0,.5-.4,0-.6-.2-1.1-.4-1.7-.6-1-1-2.1-1.1-3.3-.1-.7-.2-1.4-.3-2.2-.4-1.6-.2-3.2-.2-4.8-.1-1.2,0-2.4,.3-3.6,.1-.6,.4-1,1-1.3,.6-.2,.9,.1,1.2,.5,1.1,1,1.9,2.2,2.6,3.5,.3,.6,.7,1,1.4,1.3-.3-.7-.5-1.3-.3-2,.2-.9,.7-1.4,1.4-1.4,.7,0,1.2,.6,1.3,1.5,.1,.6,0,1.2-.3,1.9,.7-.3,1.1-.8,1.4-1.3,.7-1.3,1.6-2.5,2.7-3.5,.7-.7,1.8-.5,2,.5,.2,.8,.5,1.7,.4,2.5-.1,1.7,0,3.4-.1,5.1-.2,2.4-.4,4.8-1.7,6.9-.2,.4-.3,.8-.3,1.3,0,.4,0,.5,.5,.4,.9-.3,1.7-.9,2.3-1.6,1.3-1.5,2.2-3.2,2.7-5.1,0-.2,0-.5,.4-.6,.6-.2,.8-.6,.8-1.2,.3-4.1-.9-7.8-3.4-11-.1-.2-.4-.3-.3-.6,.4-.9,.8-1.9,1.3-2.9,.5,.9,1,1.7,1.5,2.5,1.6,2.7,3,5.5,5.3,7.7,.2,.2,.2,.4,.3,.6,.6,2.1,1.4,4.2,2.3,6.2,.1,.3,.3,.5,.5,.7,.3,.2,.4,.2,.6-.1,.2-.5,.4-1.1,.5-1.7,.1-2.4-.3-4.6-1.2-6.8-.1-.3-.3-.6-.2-1,.2-1.2,0-2.3-.8-3.3-1.3-1.9-2.8-3.6-4.5-5.2-.8-.8-1.6-1.6-2.3-2.5-.2-.3-.5-.6-.5-1.1,1.6,0,3.1,0,4.7,0,1.1,0,2.2-.2,3.2-.7,.7-.3,1.2-.8,1.3-1.5,0-.4,.3-.6,.6-.9,2-1.5,3.7-3.4,5.1-5.5,.4-.6,.7-1.2,.8-1.9,0-.3,.3-.7,0-1Z"/><path class="cls-12" d="M329.8,65.9c0,.1,0,.3-.1,.4-.3-1.6-.1-3.3-.2-4.9,0-.1,0-.2,.1-.4,0,1,.1,1.9,0,2.9,0,.7,.1,1.3,.1,2Z"/><g><path class="cls-2" d="M339.9,50.3c-.8,0-1.5,.7-1.5,1.5,0,.8,.7,1.5,1.5,1.5,.8,0,1.5-.7,1.5-1.5,0-.8-.7-1.5-1.5-1.5Z"/><path class="cls-2" d="M334.4,50.3c-.8,0-1.5,.7-1.5,1.5,0,.8,.6,1.5,1.5,1.5,.8,0,1.5-.6,1.5-1.5,0-.8-.7-1.5-1.5-1.5Z"/></g></g><g><path class="cls-2" d="M425.8,15.8c0-.4-.2-.9-.7-1-.5-.2-.7,.3-1,.5-3.2,3.4-5.8,7.2-7.9,11.5-.1,.3-.2,.6-.5,.8-.7-3.3-1.5-6.6-2.5-9.8-1-3.4-3.1-5.8-6.2-7.5-1.7-.9-3.5-1.8-4.9-3.1-.9-.8-1.8-1.5-2.9-1.8-.3,0-.6-.3-.9,0-.3,.3-.1,.6,0,.9,.3,.8,.6,1.5,.8,2.3,.4,1.1,.1,2-.6,2.9-2.5,3-3.9,6.4-4.3,10.3-.2,1.5,0,3,0,4.6-.3-.3-.5-.6-.8-.9-2.5-3.2-5.1-6.1-8.2-8.7-.7-.6-1.3-.4-1.4,.6-.2,1.4,0,2.7,.7,3.9,.6,1,1.2,1.9,1.7,2.9,1.4,2.7,2.4,5.6,2.5,8.7,0,2.5,.8,4.7,2.4,6.6,.3,.3,.3,.6,.2,1.1-.4,1.2-.7,2.4-.7,3.7-.1,4.5,1.6,8,5.2,10.7,1.5,1.1,1.7,3,.3,4.3-.3,.3-.6,.6-.9,.9-1.8,2-2.3,4.3-1.6,6.8,.8,2.8,2.4,5.2,4.9,6.8,3.3,2.2,7,2.9,10.9,2.6,1.9-.2,3.8-.7,5.7-1.5-.3,0-.3-.1-.4-.1-2.6-.2-5.3-.3-7.9-.5-1.3,0-2.7-.3-3.8-1-2.8-1.5-4.1-4.2-2-7.3,1-1.4,2.2-2.6,3.6-3.5,1.8-1.1,3.8-1.5,5.8-2,2.7-.6,5-1.8,7.1-3.5,3.2-2.6,4.5-5.9,3.9-10-.3-2.3-.9-4.5-1.6-6.6-.3-.8,0-1.3,.4-1.9,1.6-1.9,2.3-4.1,2.2-6.6,0-1.1,0-2.1,.1-3.2,.3-3.1,1.3-5.9,2.8-8.6,.7-1.3,.8-2.6,.5-4.1Z"/><g><path class="cls-2" d="M404.6,19.7c-.3-.5-.7-.7-1.2-.6-.5,0-.8,.4-.9,.9-.4,1.6-.8,3.2-.8,5,0,1,.1,2.2,.4,3.3,.1,.6,.3,1.3,.7,1.8,.5,.8,1.3,.8,1.9,0,.2-.4,.4-.8,.5-1.2,.6-2.4,.7-4.8,.2-7.3-.1-.7-.3-1.4-.7-2Z"/><path class="cls-2" d="M402.8,16.4c.5-.6,.7-1.3,.6-2,0-.4-.2-.7-.6-.9-.4-.2-.7,0-1,.3-.6,.5-.8,1.2-.8,2,0,.5,0,1.1,.6,1.2,.5,.2,.9-.2,1.2-.6Z"/><path class="cls-2" d="M406.9,15.8c0-.7-.3-1.3-.8-1.9-.3-.3-.7-.6-1.2-.3-.4,.2-.5,.6-.5,1.1,0,.7,.3,1.4,1,1.9,.3,.2,.6,.5,1,.3,.4-.2,.6-.7,.5-1.1Z"/></g></g><text class="cls-4" transform="translate(388.3 93.5)"><tspan x="0" y="0">Ghost 1</tspan></text><text class="cls-4" transform="translate(456.4 93)"><tspan class="cls-3" x="0" y="0">P</tspan><tspan class="cls-14" x="6.2" y="0">ump</tspan><tspan class="cls-7" x="29.7" y="0">k</tspan><tspan class="cls-11" x="35.5" y="0">in</tspan></text><g><path class="cls-2" d="M475.9,22.4c.3,0,.5-.2,.7-.4,6.2-4.1,12.6-4.6,19.2-1,7.4,3.9,11.6,10.1,12.5,18.2,.8,6.9-1.5,12.8-6.5,17.6-4.4,4.2-9.5,6.8-15.6,7.8-10.9,1.9-21.6,.9-31.9-3.1-10.2-3.9-16.6-13.9-15.8-23.7,.6-8.1,5.3-13.6,12.8-16.6,6.2-2.5,12.4-1.8,18.2,1.5,.5-.5,1.1-.2,1.6,0,.8,.3,1.6,.6,2.5,.9,.6,.2,1,0,1.3-.5,.2-.3,.4-.8,1-.6Z"/><path class="cls-2" d="M475.9,22.4c-.1,.2-.3,.3-.4,.5-1.1,1.4-1.1,1.4-2.8,.8-1.1-.4-2.1-.9-3.2-1-.9-1.8-2.1-3.5-3.1-5.3-.4-.7-.8-1.4-1.2-2.1-.2-.4-.1-.5,.3-.5,1.9,.1,3.9,.3,5.8,.4,.4,0,.6,.3,.7,.6,1.3,2.2,2.6,4.4,3.8,6.6Z"/><g><path class="cls-2" d="M492.8,42.9c-.2,.1-.3,.2-.5,.4-2.4,1.8-5,3.2-7.9,4.3-4.9,1.9-10,2.5-15.2,2-.8,0-.8,.2-.6,.8,.2,.6,.3,1.3,.5,1.9,.1,.4,0,.6-.5,.5-1.2-.2-2.3-.5-3.5-.7-.4,0-.6-.3-.7-.7-.2-.8-.4-1.6-.6-2.3-.1-.5-.4-.7-.8-.8-3.6-1-6.8-2.5-9.9-4.6-.2-.1-.4-.4-.7-.3,2.8,7,10.6,13.3,20.6,13.2,9.9-.1,17.5-6.5,20.1-13.7-.1,0-.2,0-.2,0Z"/><path class="cls-2" d="M457.3,36.7c2.1,0,4.2,0,6.3,0,.8,0,.8-.3,.6-.8-.7-2.1-1.4-4.2-2.1-6.2-.5-1.6-1-3.1-1.6-4.9-.2,.3-.2,.4-.3,.5-1.2,3.6-2.3,7.2-3.5,10.8-.2,.5,0,.7,.5,.7Z"/><path class="cls-2" d="M482.6,36.7c2.1,0,4.1,0,6.2,0,1,0,1,0,.7-.9-1-3-2-6-3-8.9-.2-.6-.3-1.3-.7-1.9,0,0-.2,.1-.2,.2-1.2,3.7-2.4,7.3-3.6,11-.2,.6,0,.6,.6,.6Z"/><path class="cls-2" d="M470.8,45.2c1.7,0,3.3,0,5,0,.6,0,.6-.2,.4-.7-.5-1.1-.9-2.1-1.4-3.2-.6-1.5-1.3-3-1.9-4.4,0,0-.2,0-.2,0-.8,2.6-1.6,5.3-2.5,7.9-.1,.5,.2,.4,.5,.4Z"/></g></g><path class="cls-2" d="M578.6,28.1c-3.8,5.4-9,8.6-16,9.8,1.2-1.8,2-3.4,2.1-5.3,0-.9-.1-1.7,0-2.6,0-.3,0-.6-.2-.9-1.5,1.7-3.4,2.6-5.8,2.6-2.4,0-4.4-1-5.9-2.8-.3,.9-.3,1.6-.3,2.4,0,2.3,.8,4.4,2.2,6.5-7-1.3-12.1-4.6-15.9-10-3.8,8.6-9.7,15.5-18,20.9,.4,.1,.6,0,.8,0,5.8-.8,11.1,.2,15.4,4,.4,.3,.7,.3,1.1,.2,3-1,6-1,9,0,2.8,1,4.9,2.8,6.3,5.1,3.8-3.9,7.2-3.1,10.2,0,.1-.1,.2-.3,.3-.4,3.3-4.7,9.3-6.5,15.1-4.5,.5,.2,.8,0,1.1-.2,3.2-2.6,6.9-4,11.2-4.1,1.6,0,3.2,0,4.8,.3-8.1-5.5-13.9-12.5-17.5-21.1Z"/><text class="cls-4" transform="translate(549.2 82.8)"><tspan x="0" y="0">B</tspan><tspan class="cls-6" x="6.5" y="0">a</tspan><tspan x="12.2" y="0">t</tspan></text><path class="cls-2" d="M631.7,79.4c.1-.5,.2-.8,.3-1.1,.7-2.8,.4-5.4-.9-7.9-.8-1.5-1.7-2.9-2.8-4.2-2.6-3.1-4.1-7-4.6-11.4-.1-1.2-.1-2.3,0-3.5,.1-3.4-.7-6.5-2.6-9-1.8-2.4-3.8-4.6-5.4-7.2-1.1-1.6-2.1-3.3-3.1-4.9-.7-1.1-1-2.4-1.1-3.8-.1-1.7,1.1-2.8,2.4-2.1,.6,.3,1,.9,1.5,1.5,.1-.3,.2-.6,.3-.8,.2-.3,.6-.5,.9-.4,.4,.1,.7,.5,.8,1,.4,2.5,1.5,4.5,3,6.3,1.6,1.9,3.9,1.4,4.9-1,.8-1.8,1.1-3.8,.5-5.7-1-3.7,.4-7.9,4-9.2,2.3-.8,4.5-.7,6.7,.7,2.3,1.5,3.6,5,2.8,8.1-.6,2.1-.4,4.2,.4,6.1,1,2.4,3.1,3,4.8,1.2,1.5-1.6,2.6-3.7,3.1-6.2,.1-.7,.3-1.2,.9-1.3,.6,0,.9,.4,1.1,1,0,0,0,0,.1,.2,.4-.6,.8-1.1,1.4-1.4,1.2-.7,2.4,.2,2.4,1.9,0,1.6-.5,3.1-1.3,4.4-1.4,2.2-2.7,4.4-4.2,6.4-.8,1.1-1.7,2.2-2.5,3.4-1.5,2.3-2.1,4.9-2.4,7.8-.2,2.7-.9,5.2-2.3,7.3-1.4,2.1-1.5,4.5-1.3,7.1,.6,6.7-2.2,13.4-7.1,16.6,0,0-.1,0-.3,.1Z"/><path class="cls-2" d="M632.4,25.6c.8,0,1.5,.8,1.5,1.9,0,1-.8,1.8-1.5,1.8-.8,0-1.4-.9-1.4-1.9,0-1,.6-1.7,1.5-1.7Z"/><path class="cls-2" d="M635.3,20.5c.5,0,.8,.4,.8,1,0,.5-.4,1-.8,1-.5,0-.9-.4-.8-1,0-.5,.4-1,.8-1Z"/><path class="cls-2" d="M630.1,21.5c0,.5-.4,1-.8,1-.5,0-.8-.4-.8-1,0-.5,.4-1,.8-1,.4,0,.8,.5,.8,1Z"/><text class="cls-4" transform="translate(611.9 95.6)"><tspan x="0" y="0">Ghost 2</tspan></text><path class="cls-2" d="M167.2,159.8c-.5-.8-1.5-.7-2.3-.4-2.5,.8-5.1,1.2-7.8,1.4-.8,0-1.2-.3-1.7-.9-1.4-2-1.5-4.3-2.3-6.5-1.3-3.8-2-7.8-3-11.7-1.1-4.2-2.3-8.3-3.4-12.5-.4-1.6-1-3.1-1.7-4.6-1.1-2.3-1.9-4.8-.5-7.4,.4-.8,.4-1.7,.3-2.5,0-.4-.2-.8-.7-.5-1.5,.9-2.9,2-3.5,3.6-.4,.9-.8,1.6-1.6,2.3-1.1,.9-1.9,2.1-2.1,3.5-.3,1.3-.7,2.6-1.4,3.7-2.4,3.9-3.5,8.2-3.3,12.7,0,.3,.2,.8-.2,.8-1,.3-.9,1.2-1,1.9-.5,3.7-1,7.4-1.4,11.2,0,.3,0,.8-.4,.9-.6,.3-.8,.9-1,1.4-.5,1.4-1,2.7-1.5,4.1-.3,.8-.8,1-1.5,.8-.8-.3-1.6-.4-2.4-.3-2.3,.2-4.6-.2-6.8-.8-.4-.1-.8-.2-1.1-.3-.4,0-.9-.1-1.1,.3-.3,.5,0,.8,.3,1.1,3.1,3.3,6.6,5.8,11,7.1,5.9,1.7,11.9,2.4,18.1,2.4,2.7,0,5.4-.2,8-.5,6.3-.6,11.5-3.2,15.7-8,.6-.7,1-1.6,.4-2.5Z"/><path class="cls-2" d="M239.6,125.7c0,3.3-.6,6.4-1.9,9.4-.3,.8-.4,1.4-.1,2.2,.6,2.1,1,4.3,.9,6.4,0,1.3-1.2,2.3-2.6,2.4-1.5,0-2.7-.8-2.8-2.1-.9-13.2-17.4-18.7-27.8-13.5-1.6,.8-3.3,1.7-4.7,2.8-3.4,2.7-4.8,6.3-5.3,10.4-.3,2.1-2.6,3.2-4.4,2-.8-.5-1.2-1.3-1.2-2.3,0-2.1,.3-4.2,.9-6.2,.2-.7,.2-1.4-.1-2.1-2.5-6-2.6-12-.3-18.1,.3-.8,.6-1,1.5-.6,4.9,2.1,9.5,4.6,13.7,7.9,.7,.6,1.3,.6,2.2,.4,4.4-1.1,8.8-1.1,13.2,0,.8,.2,1.4,0,2-.4,4.2-3.2,8.8-5.8,13.7-7.9,.9-.4,1.3-.2,1.6,.7,1,2.8,1.6,5.7,1.6,8.7Z"/><path class="cls-2" d="M238.2,169.7c3.3,4.2,4,8.4,2.4,12.9-.5,1.4-1.3,2.7-2.4,3.8-.4,.5-.6,.9-.3,1.5,.8,1.8,1.2,3.7,1.5,5.6,.2,1.9-.5,3-2.3,3.2-1.7,.2-2.8-.8-3.1-2.6-.5-3.5-1.9-6.7-5-9-6.5-4.9-15.6-6.1-23.6-2.4-5.2,2.4-8.2,6-8.9,11.1-.2,1.2-.5,2.3-2,2.7-2,.5-3.9-.8-3.7-2.6,.2-1.9,.6-3.8,1.4-5.6,.4-.9,.3-1.5-.3-2.4-3.7-4.9-3.8-10-.5-15.1,.2-.4,.5-.8,1-1.1,.1,.4,.2,.7,.4,1.1,1.3,3.9,4.2,6.6,8.6,7.9,.7,.2,1.2,.2,1.9-.1,8.1-3.5,16.2-3.4,24.3,.3,.6,.3,1.1,.3,1.7,0,4.4-1.3,7.3-4,8.7-7.9,.1-.4,.2-.7,.4-1.3Z"/><path class="cls-2" d="M165.5,193.6c-.6,1.8-1.7,3.4-3.1,5-1,1.1-2.1,2.1-3.4,3-2.5,1.8-5.9,2.6-9.9,2.7-.9,0-1.1-.2-1.1-.7,0-.9-.1-1.7-.2-2.6,0-.3-.2-.6-.9-.5-.6,.1-1.8-.2-1.7,.6,.1,.7,.1,1.4,.3,2.1,0,.4,0,.6-.8,.7-3.7,.4-7.5,.6-11.3,.6-2.6,0-4.4-1.2-4.4-2.7,0-.5,.1-.9,.1-1.4,0-.3,.1-.6-.7-.6-.6,0-1.5-.1-1.6,.5,0,.7,0,1.4-.3,2.3-4.7-2.6-7.1-5.6-7.5-9.1,.5,0,.7,0,.9,.2,3.4,1.3,7.2,1.9,11.4,1.8,1,0,1.2,.1,1.1,.6-.1,.5-.2,1-.2,1.5,0,.2-.1,.3,0,.5,.7,.6,1.9,.3,2.9,.4,.6,0,.9,0,1-.4,.1-.5,.3-1.1,.5-1.6,0-.4,.3-.5,1-.4,3.5,.3,7,.2,10.5-.3,.6,0,.8,0,.8,.3,0,.4,.2,.9,.2,1.3,0,.3,.3,.4,.8,.4,.7,0,1.4,0,2.1,0,.5,0,.8-.2,.7-.5,0,0,0,0,0-.1,0-.5-.5-1.2,.2-1.6,.6-.3,1.8-.2,2.8-.2,3-.2,5.8-.6,8.6-1.3,.3,0,.7-.2,1.3-.3Z"/><path class="cls-2" d="M142.4,185.5c3.8,0,7.6-.1,11.3-.2,.8,0,1.1,0,1.1,.6,0,.9,.6,1.7,1.4,2.5,.4,.4,.4,.5-.5,.6-6.1,.5-12.3,.7-18.5,.6-2.9,0-5.9-.2-8.8-.3-1,0-1.2-.2-.8-.7,.5-.7,1-1.4,1.3-2.1,.3-.6,1-.8,2.2-.8,3.7,0,7.4,0,11.1,0Z"/><path class="cls-2" d="M224.9,147c-2.6-.5-5.1-.4-7.6,.1-.6,.1-.8,0-.6-.6,.8-3,2.2-5.8,4-8.4,.3-.5,.6-.3,.9,0,2,2.4,3.4,5.1,4.1,8.1,.2,.6-.1,.9-.8,.8Z"/><path class="cls-2" d="M210.8,146.9c-2.7-.4-5.2,0-7.7,.6-.8,.2-.9-.1-.8-.7,.5-3,1.5-5.8,3.2-8.3,.4-.6,.7-.6,1.2,0,1.9,2.3,3.5,4.7,4.6,7.5,.2,.5,.4,1.1-.4,1Z"/><g><path class="cls-2" d="M303,126.4c-.5-2.3-1.4-4.4-3.1-6.1-4.1-4.1-10.7-4.1-14.6,.2-.6,.6-1,1.3-1.6,2-3.9-4-5.6-4.9-10-5.3-.2,0-.3,0-.5,0-2.2,.1-4.4,.5-6.2,1.8-4.4,3-5.9,7.1-5.1,12.3,.6,1.9,1.3,3.7,3,5.1,5.7,4.6,14,3.4,18-2.8,.4-.7,.6-.8,1.2,0,1.6,1.9,3.6,3.1,6.1,3.8,4.7,1.2,12-1,12.7-8,.1-.9,0-1.9,0-2.8Z"/><path class="cls-2" d="M292.4,131.2c-2.1,0-3.7-1.7-3.7-3.8,0-2.1,1.7-3.7,3.9-3.7,2,0,3.7,1.7,3.7,3.8,0,2.1-1.7,3.8-3.8,3.8Z"/><path class="cls-2" d="M273,125.1c0,.4-.2,.7-.3,1-.7,1.5-.2,3.1,1.1,4.1,1.3,.9,3,.8,4.2-.3,1.1-1.1,1.3-2.8,.5-4.1-.8-1.4-2.4-1.9-4-1.3-.4,.1-.8,.3-1.2,.3,1.1-1.2,2.5-1.2,3.9-.7,1.5,.6,2.3,1.8,2.3,3.4,0,1.6-.7,2.8-2.1,3.5-.5,.2-.9,.4-1.5,.4-.2,.1-.3,.1-.5,0-2.7-.5-4.2-2.9-3.1-5.3,.2-.4,.3-.8,.8-.9Z"/><path class="cls-2" d="M271,122.3c-1,0-1.5-.5-1.9-1.2,0-.2,0-.4,.1-.5,.2-.1,.4,0,.5,.2,.7,1.3,1.6,.8,2.5,.4,.6-.3,.6-.7,0-1-.7-.4-1.4-.7-2.1-1-.2-.1-.5-.2-.3-.5,.2-.4,.5-.2,.7,0,.8,.6,1.9,.7,2.7,1.4,.3,.3,.7,.2,1.1,.1,.2,0,.5-.1,.6,.2,.1,.3-.1,.4-.4,.5-.5,.1-.5,.4-.3,.8,.1,.3,.2,.6,.3,.9,0,.3,.3,.8-.1,.9-.5,.1-.5-.4-.5-.7-.2-1.2-.7-1.4-1.7-.7-.4,.3-.9,.3-1.2,.4Z"/><path class="cls-2" d="M275.3,131.2c.2,0,.3,0,.5,0,.2,.5,0,.9-.4,1.2-.4,.5-.8,.9-1.2,1.4-.5,.7-.6,1.3,.4,1.7,.7,.3,1.1,.9,1.3,1.6,0,.2,0,.4-.2,.5-.2,0-.4,0-.4-.3,0-.1-.1-.3-.2-.4-.2-.4-.5-.8-1-.8-.5,0-.6,.6-.8,.9-.1,.3,0,.9-.5,.7-.3-.1-.3-.6-.1-.9,.5-1.2-.2-.9-.9-.8-.2,0-.5,.4-.7,0-.2-.4,.2-.7,.5-.6,1.3,.1,1.5-.8,1.8-1.7,.4-1,1.4-1.5,1.8-2.5Z"/><path class="cls-2" d="M298.4,122.7c-.7-.4-1.2-.9-1.6-1.5-.2-.2-.5-.5-.2-.8,.4-.3,.5,.1,.7,.3,.3,.3,.5,.8,1,.9,.5-.4,0-1.6,.7-1.4,.8,.2,0,1.1,.2,1.7,0,.6,0,1.1-.6,1.4-.5,.3-.5,.6-.2,1.1,.1,.2,.1,.6,.1,.9,0,.3-.1,.7-.5,.7-.5,0-.2-.4-.2-.7,0-.7,0-1.5-1-.6-.2,.2-.3,.2-.5,0-.2-.2,0-.4,0-.5,.5-.8,1.3-1.1,2.1-1.7Z"/><path class="cls-2" d="M288.9,123.3c0,.3,.3,.9-.3,.9-.5,0-.4-.6-.4-1,0-.3,0-.8,0-1,.6-1.1,.9-2-.3-2.9-.2-.1-.1-.4,0-.5,.2-.1,.4,0,.5,.1,.4,.5,1,.9,1.1,1.6,.2,1,.6,1.7,1.6,2.1,.2,0,.5,.2,.3,.5-.1,.3-.4,.2-.6,.1-.5-.1-.8-.4-1.2-.8-.2-.2-.3-.7-.7-.5-.4,.1-.3,.6-.3,.9,0,.1,0,.2,0,.4Z"/><path class="cls-2" d="M300.6,128.2c.2,0,.4,0,.7,.1,.3,0,.7,.1,.7,.5,0,.5-.5,.2-.8,.2-1.7-.2-3.4,.7-4,2.3,0,.2-.2,.4-.3,.6,0,.2-.2,.4-.4,.3-.3,0-.3-.3-.2-.6,.2-.7,.9-1.3,.3-2.2,0,0,.2-.3,.2-.3,1.2,.2,2.1-.7,3.2-1,.2,0,.4,0,.6,0Z"/><path class="cls-2" d="M267.2,132.2c-.6-.8-.4-1.4,.4-2,.7-.5,1.4-1,2.2-1.6,.2-.1,.4-.3,.6,0,.3,.3,0,.5-.2,.6-.6,.4-1.1,.8-1.7,1.2-1,.8-1.1,1-.2,2,.5,.5,1,1,1.1,1.7,0,.3,.2,.7-.2,.8-.4,0-.4-.3-.4-.5,0-.6-.6-1-.9-1.4-.4-.1-.6-.3-.6-.7Z"/><path class="cls-2" d="M264.1,125.1c.3,0,.4,.3,.5,.4,.7,.8,1.5,1,2.4,.6,1.3-.6,2.6-.2,3.8,.2,.2,0,.5,.2,.4,.4,0,.4-.4,.3-.7,.2-1.4-.6-2.7-.6-4.1,0-1,.4-2.3-.4-2.7-1.2-.1-.3-.2-.5,.2-.6Z"/><path class="cls-2" d="M290.1,131.5c0,.7-.1,1.4-.6,1.8-.9,.9-.7,1.6,.1,2.4,.2,.2,.7,.3,.3,.7-.3,.3-.6,0-.8-.2-.4-.3-.6-.6-.7-1-.2-.4-.2-.9-.9-.9-.2,0-.4-.1-.4-.3,0-.2,.2-.3,.4-.3,1.3-.1,1.8-.9,1.9-2.1,0-.3,0-.6,.4-.6,.4,0,.3,.4,.3,.6Z"/><path class="cls-2" d="M286.3,128.4c-.3,0-.8-.1-1.2-.3-.3-.1-.8-.2-.7-.6,0-.5,.5-.2,.8-.1,.5,0,.4-.3,.3-.5,0-.6-.3-1.2-.4-1.8,0-.3-.4-.8,0-.9,.5-.2,.6,.4,.6,.8,.2,.7,.3,1.4,.4,2.2,0,.4,.2,.7,.7,.6,.3,0,.7-.3,.7,.2,0,.4-.4,.4-.7,.5-.2,0-.4,0-.7,0Z"/><path class="cls-2" d="M297.3,134.7c-2.1,0-3.1-.7-3.4-2.4,0-.2-.1-.5,.2-.6,.3,0,.4,.1,.5,.4,.3,1.7,1.5,2.1,3,1.9,.1,0,.3,0,.5,0,.3,0,.7,0,.6,.5,0,.4-.4,.2-.7,.2-.2,0-.5,0-.7,0Z"/><path class="cls-2" d="M267.2,132.2c.2,.2,.4,.5,.6,.7-.7,.3-1.3,.8-1.8,1.3-.2,.1-.3,.4-.6,.2-.3-.3,0-.5,.1-.7,.5-.5,1.1-1,1.6-1.5Z"/><path class="cls-2" d="M265.1,130.6c0,.1,.3,.3,.2,.4-.1,.6,.1,1.2,.3,1.8,0,.3-.1,.5-.5,.4-.5-.3-.8-1.9-.4-2.3,0,0,.2-.1,.3-.2Z"/><path class="cls-2" d="M279.6,133.2c0,.3,0,.7-.4,.7-.4,0-.3-.4-.3-.6,0,0,0-.2,0-.2,0-.4-.5-.8-.1-1.2,0,0,.3,0,.3,0,.4,.3,.5,.8,.5,1.4Z"/><path class="cls-2" d="M275.6,131.1c-2.1,0-3.7-1.7-3.7-3.8,0-2.1,1.7-3.7,3.9-3.7,2,0,3.7,1.7,3.7,3.8,0,2.1-1.7,3.8-3.8,3.8Z"/><path class="cls-2" d="M295.7,127.5c0,1.8-1.5,3.2-3.3,3.2-1.9,0-3.3-1.5-3.2-3.4,0-1.8,1.5-3.2,3.4-3.2,1.8,0,3.2,1.6,3.2,3.3Z"/><path class="cls-2" d="M278.9,127.4c0,1.8-1.5,3.2-3.3,3.2-1.9,0-3.3-1.5-3.2-3.4,0-1.8,1.5-3.2,3.4-3.2,1.8,0,3.2,1.6,3.2,3.3Z"/></g><rect class="cls-1" x="92.5" y="102.3" width="229.3" height="110.7" rx=".4" ry=".4"/><path class="cls-1" d="M204.8,195.5c1.3-.7,2.5-1.5,3.7-2.5,.8-.4,1.6-.8,2.3-.9,.7-.2,1.5-.1,2.3,0,.8,.1,1.5,.5,2.2,1,.8-.7,1.7-1,2.7-1.1,.9,0,1.7-.1,2.3,0,.8,.2,1.5,.6,2.1,1.1l2.1,1.8c.6,.4,1,.5,1.4,.6-.2,.3-.8,.6-1.4,.8-.5,.2-1.5,.4-2.6,.6-.9,0-1.8-.1-2.3-.4l-1.6,3.9-2-3.9h-1.3c0-.1-1.8,4.1-1.8,4.1l-1.7-4c-.5,.2-1.6,.2-2.8,.2-1.4-.2-2.7-.6-3.6-1.3"/><line class="cls-1" x1="211.1" y1="196.7" x2="214.7" y2="196.4"/><line class="cls-1" x1="216" y1="196.5" x2="219.6" y2="196.6"/></svg>